<?xml version="1.0" encoding="UTF-8" standalone="no"?>
<!-- Created with Inkscape (http://www.inkscape.org/) -->

<svg
   xmlns:dc="http://purl.org/dc/elements/1.1/"
   xmlns:cc="http://creativecommons.org/ns#"
   xmlns:rdf="http://www.w3.org/1999/02/22-rdf-syntax-ns#"
   xmlns:svg="http://www.w3.org/2000/svg"
   xmlns="http://www.w3.org/2000/svg"
   xmlns:sodipodi="http://sodipodi.sourceforge.net/DTD/sodipodi-0.dtd"
   xmlns:inkscape="http://www.inkscape.org/namespaces/inkscape"
   width="450"
   height="500"
   id="svg2"
   version="1.1"
   inkscape:version="0.48.4 r9939"
   sodipodi:docname="amazing_logo.svg">
  <defs
     id="defs4" />
  <sodipodi:namedview
     id="base"
     pagecolor="#ffffff"
     bordercolor="#666666"
     borderopacity="1.0"
     inkscape:pageopacity="0.0"
     inkscape:pageshadow="2"
     inkscape:zoom="0.70000001"
     inkscape:cx="900.3307"
     inkscape:cy="297.43028"
     inkscape:document-units="px"
     inkscape:current-layer="layer1"
     showgrid="false"
     inkscape:window-width="1920"
     inkscape:window-height="1005"
     inkscape:window-x="-9"
     inkscape:window-y="-9"
     inkscape:window-maximized="1"
     borderlayer="true" />
  <metadata
     id="metadata7">
    <rdf:RDF>
      <cc:Work
         rdf:about="">
        <dc:format>image/svg+xml</dc:format>
        <dc:type
           rdf:resource="http://purl.org/dc/dcmitype/StillImage" />
        <dc:title />
      </cc:Work>
    </rdf:RDF>
  </metadata>
  <g
     inkscape:label="Layer 1"
     inkscape:groupmode="layer"
     id="layer1"
     transform="translate(0,-552.36217)">
    <g
       id="g2996"
       transform="matrix(1.1749347,0,0,1.1185682,-218.11826,369.87011)">
      <path
         style="fill:#fdfdfd"
         d="m 185.64287,386.64792 0,-223.5 191.5,0 191.5,0 0,223.5 0,223.5 -191.5,0 -191.5,0 0,-223.5 z"
         id="path3012"
         inkscape:connector-curvature="0" />
      <path
         style="fill:#929294"
         d="m 368.01081,592.18192 c -1.51652,-0.62757 -2.48911,-2.41993 -3.36876,-6.20815 -2.89042,-12.4476 -14.12428,-49.92067 -17.03553,-56.82585 -1.73912,-4.125 -5.32067,-12.69888 -7.95899,-19.05307 -5.66755,-13.64981 -22.24922,-47.15781 -25.45887,-51.44693 -1.23474,-1.65 -12.05002,-18.525 -24.03396,-37.5 -11.98393,-18.975 -24.48183,-38.44631 -27.7731,-43.26958 -13.42633,-19.67595 -21.73937,-49.56282 -21.73856,-78.1541 5.3e-4,-18.65436 8.959,-44.84114 22.67553,-66.28353 4.52538,-7.0743 19.96768,-23.09147 27.43058,-28.45172 3.32416,-2.38759 7.92263,-5.70816 10.21882,-7.37906 5.85288,-4.25902 16.40675,-8.86947 31.36411,-13.70138 l 12.81079,-4.13847 22.47495,-0.39693 c 24.92582,-0.44021 28.40732,-0.0208 45.48399,5.47996 17.55372,5.65437 28.06055,11.38158 43.0907,23.48845 20.20315,16.27376 35.24172,39.78461 42.4699,66.39616 3.07217,11.31065 3.88636,38.25165 1.53855,50.9102 -3.98972,21.51122 -11.75766,41.23277 -22.33264,56.69902 -1.61742,2.36554 -12.75077,19.82598 -24.74076,38.80098 -11.98999,18.975 -23.32476,36.71811 -25.18838,39.42914 -6.87521,10.00147 -24.97208,48.84632 -33.57607,72.07086 -7.74173,20.8971 -14.60393,43.1131 -16.27752,52.69763 -0.35511,2.0337 -1.16249,4.37157 -1.79419,5.19527 -1.49368,1.94769 -5.58184,2.7579 -8.28059,1.6411 z m 0.73779,-193.06549 c 6.3314,-1.88557 14.77131,-7.05158 15.59055,-9.54287 0.21927,-0.66679 -2.2168,-0.40414 -6.42149,0.69235 -7.46459,1.9466 -24.15215,2.44235 -30.74672,0.91341 -2.18455,-0.50648 -4.20955,-0.6765 -4.5,-0.37782 -0.85596,0.88025 8.81525,9.17414 11.24523,9.64374 4.81927,0.93134 8.28621,0.62074 14.83243,-1.32881 z m -42.05477,-70.98369 c 12.61296,-3.7563 21.70561,-11.67717 27.14057,-23.64294 1.8429,-4.05737 2.20808,-6.70517 2.25385,-16.34188 0.0524,-11.03066 -0.0799,-11.77509 -3.24188,-18.24041 -4.15389,-8.4935 -11.5188,-15.8291 -20.11626,-20.03619 -6.20785,-3.03775 -7.22198,-3.2234 -17.60827,-3.2234 -10.51799,0 -11.337,0.15556 -17.94386,3.4081 -9.65312,4.75221 -15.18585,10.13459 -19.11123,18.5919 -4.44037,9.56686 -5.83062,17.73933 -4.38044,25.75 1.65403,9.13666 6.7976,19.49542 12.043,24.25368 11.20546,10.16482 26.659,13.74151 40.96452,9.48114 z m -10.55096,-3.66628 c -9.26309,-4.9446 -12.87736,-10.31021 -12.74715,-18.9239 0.0814,-5.38132 2.05091,-9.03726 7.64803,-14.19651 4.45335,-4.10495 4.71124,-4.19813 11.61962,-4.19813 7.03956,0 7.08342,0.0171 12.09417,4.70403 7.8623,7.35426 9.64695,13.82147 6.01831,21.8091 -2.81389,6.19413 -12.13447,12.52205 -18.33332,12.44683 -1.81481,-0.022 -4.64966,-0.76066 -6.29966,-1.64142 z m 121.8121,4.11835 c 8.19615,-2.4695 11.76881,-4.52945 18.08714,-10.42882 17.28538,-16.13922 17.28538,-43.76657 0,-60.07331 -8.5877,-8.10149 -15.63092,-11.23426 -26.41668,-11.74994 -11.43509,-0.54672 -17.69037,1.29505 -26.05036,7.6701 -7.87993,6.00897 -13.36742,13.11215 -16.08237,20.81755 -3.0267,8.59018 -2.32028,22.55762 1.54813,30.60992 3.0837,6.41886 13.20306,17.21708 18.66461,19.91673 9.6443,4.76717 21.10291,5.99364 30.24953,3.23777 z m -21.8121,-4.11835 c -9.26309,-4.9446 -12.87736,-10.31021 -12.74715,-18.9239 0.0814,-5.38132 2.05091,-9.03726 7.64803,-14.19651 4.45335,-4.10495 4.71124,-4.19813 11.61962,-4.19813 7.03956,0 7.08342,0.0171 12.09417,4.70403 7.8623,7.35426 9.64695,13.82147 6.01831,21.8091 -2.81389,6.19413 -12.13447,12.52205 -18.33332,12.44683 -1.81481,-0.022 -4.64966,-0.76066 -6.29966,-1.64142 z m 49.29708,216.61229 c -5.52779,-2.88159 -6.3449,-6.96986 -3.2259,-16.14012 1.33585,-3.92756 2.42882,-7.46775 2.42882,-7.86709 0,-0.39934 -1.54708,-1.63887 -3.43795,-2.75451 -5.99151,-3.53508 -7.88876,-10.45654 -5.12506,-18.69705 0.5633,-1.67958 0.0392,-2.25969 -3.05102,-3.37713 -8.10371,-2.93034 -10.71582,-9.76157 -6.42406,-16.80031 1.54134,-2.52789 1.82847,-4.2689 1.3585,-8.23708 -0.50374,-4.25326 -0.22653,-5.57279 1.79183,-8.52931 2.4794,-3.63187 6.226,-5.52823 10.92197,-5.52823 1.77925,0 3.28197,-0.83361 4.29799,-2.38424 2.48854,-3.798 11.19315,-7.61576 17.36414,-7.61576 2.91701,0 5.30366,-0.3085 5.30366,-0.68555 0,-0.37705 -0.90182,-1.64549 -2.00404,-2.81875 l -2.00404,-2.13321 3.96828,-14.47275 c 2.18256,-7.96002 6.17549,-20.52908 8.87319,-27.93125 5.32704,-14.61679 19.92137,-45.43216 25.31823,-53.45849 2.87944,-4.28236 3.8856,-5.04373 7.01016,-5.3047 4.55385,-0.38034 6.83822,2.39919 6.83822,8.32047 0,2.34835 -6.34679,25.31742 -15,54.2851 -8.25,27.61789 -15,51.02673 -15,52.01964 0,0.99292 1.41261,3.127 3.13914,4.7424 1.72652,1.6154 4.98902,6.76209 7.25,11.43709 l 4.11086,8.5 0,12.09235 0,12.09236 -3.93142,7.74513 c -4.32691,8.52427 -6.88502,10.91666 -16.56858,15.49525 -4.64353,2.19556 -7.97617,3.07356 -11.66847,3.07412 l -5.16847,7.9e-4 -2.17598,6.53884 c -3.04832,9.1602 -8.22745,12.02151 -15.19,8.39199 z m -186.29747,-4.31674 c -4.3331,-1.88846 -5.08678,-3.1283 -9.24819,-15.21365 -4.04106,-11.73584 -3.37081,-11.11949 -10.55709,-9.70812 -4.35138,0.85459 -16.02061,-3.30173 -21.55733,-7.67826 -4.08297,-3.22741 -5.46669,-5.27046 -8.58834,-12.68066 -3.60566,-8.55914 -3.70664,-9.12836 -3.25235,-18.3334 0.56636,-11.47569 4.22354,-21.19847 11.42735,-30.3801 l 4.61346,-5.8801 -2.41856,-7.03572 c -2.72314,-7.92176 -5.24231,-11.70408 -7.79536,-11.70408 -0.9524,0 -3.8291,-1.33017 -6.39265,-2.95593 -7.03808,-4.46342 -10.84554,-12.87271 -16.24199,-35.87271 -2.39685,-10.21555 -4.13576,-18.93319 -3.86422,-19.37254 1.86246,-3.01353 5.89665,3.18351 12.18719,18.72114 4.51522,11.15257 8.05473,18.72221 8.14843,17.42634 0.022,-0.30454 -2.49173,-7.72954 -5.58611,-16.5 -3.09438,-8.77047 -5.84545,-17.1838 -6.1135,-18.6963 -0.87683,-4.94775 1.61495,-2.94769 5.20218,4.1756 1.91822,3.80907 3.92316,7.19474 4.45543,7.5237 0.53227,0.32896 0.0935,-2.55687 -0.9751,-6.41294 -3.58661,-12.94273 -1.82413,-13.68576 4.23724,-1.78636 6.63255,13.02068 6.03191,6.61283 -0.84361,-9 -0.30276,-0.6875 0.0757,-1.25 0.84098,-1.25 1.86179,0 10.43611,10.30393 13.33542,16.02544 2.75022,5.42731 8.70269,22.34574 10.42031,29.6172 1.09517,4.6363 1.00404,5.63249 -0.92554,10.11793 -2.04738,4.75925 -2.07211,5.20899 -0.56943,10.35736 0.86398,2.96014 2.38029,6.71435 3.36956,8.34269 1.71107,2.81641 2.13706,2.96254 8.74545,3 5.38958,0.0306 8.17964,0.62981 12.44676,2.67337 3.025,1.44869 7.69522,3.44437 10.37826,4.43484 5.37838,1.98547 7.82146,5.75295 8.06122,12.43117 0.0691,1.925 1.12182,5.075 2.33935,7 3.59549,5.68471 2.3392,11.85336 -2.97352,14.60068 -3.22708,1.66879 -3.3259,2.32086 -1.25356,8.27158 1.86354,5.35111 0.74564,9.6765 -3.63236,14.05451 l -2.92489,2.92489 6.65195,13.53923 6.65195,13.53924 -1.76424,4.61959 c -2.81156,7.36197 -9.04763,10.10941 -16.03455,7.06437 z M 248.74069,231.9987 c -1.7618,-5.05393 -1.30654,-14.79402 0.92094,-19.70283 6.81197,-15.0119 21.99352,-22.96345 29.29415,-15.34323 4.04302,4.22001 3.47755,5.72839 -3.28528,8.76337 -7.44421,3.34076 -14.4642,10.60896 -18.76833,19.43191 -1.744,3.575 -3.40167,7.2875 -3.68372,8.25 -0.81942,2.79632 -3.28361,2.0263 -4.47776,-1.39922 z m 242.78437,-0.52223 c -6.03658,-14.89285 -10.83652,-20.943 -21.10885,-26.60697 -3.14967,-1.73666 -5.96853,-3.78784 -6.26413,-4.55818 -0.80916,-2.10863 6.10757,-8.16524 9.31199,-8.15402 1.47334,0.005 4.96383,1.32002 7.75664,2.9219 12.94003,7.42208 19.48523,22.67022 15.02719,35.00835 -1.60512,4.44234 -3.28494,4.93635 -4.72284,1.38892 z"
         id="path3010"
         inkscape:connector-curvature="0" />
      <path
         style="fill:#5d8ebe"
         d="m 368.31941,590.89792 c -1.0112,-0.74103 -2.88195,-5.73544 -4.59451,-12.26608 -5.128,-19.55507 -12.09648,-42.31898 -15.22797,-49.74519 -1.67884,-3.9813 -5.21108,-12.43761 -7.8494,-18.7918 -5.66755,-13.64981 -22.24922,-47.15781 -25.45887,-51.44693 -1.23474,-1.65 -12.05002,-18.525 -24.03396,-37.5 -11.98393,-18.975 -24.48183,-38.44631 -27.7731,-43.26958 -13.42633,-19.67595 -21.73937,-49.56282 -21.73856,-78.1541 5.3e-4,-18.63879 8.96,-44.8427 22.64912,-66.24225 4.53624,-7.09127 19.03996,-22.16527 26.44317,-27.48288 3.33176,-2.39316 7.93645,-5.71828 10.23264,-7.38918 5.85288,-4.25902 16.40675,-8.86947 31.36411,-13.70138 l 12.81079,-4.13847 22.47495,-0.39693 c 24.92582,-0.44021 28.40732,-0.0208 45.48399,5.47996 17.55067,5.65339 28.05195,11.37706 43.0907,23.48638 19.50519,15.70572 34.31709,39.06416 41.4699,65.39823 3.07217,11.31065 3.88636,38.25165 1.53855,50.9102 -3.98972,21.51122 -11.75766,41.23277 -22.33264,56.69902 -1.61742,2.36554 -12.75077,19.82598 -24.74076,38.80098 -11.98999,18.975 -23.32476,36.71811 -25.18838,39.42914 -6.87521,10.00147 -24.97208,48.84632 -33.57607,72.07086 -7.76335,20.95545 -14.60075,43.10385 -16.29193,52.77446 -0.62004,3.54555 -3.43791,6.72554 -5.95969,6.72554 -0.5975,0 -1.85393,-0.5625 -2.79208,-1.25 z M 367.76139,400.7245 c 2.54018,-0.77098 6.36518,-2.29948 8.5,-3.39668 4.68412,-2.40743 12.11908,-8.736 11.27823,-9.59993 -0.33179,-0.34089 -4.38179,0.286 -9,1.3931 -9.42629,2.25972 -23.76605,2.67723 -31.91653,0.92927 -2.81503,-0.60372 -5.39661,-0.81928 -5.73686,-0.47904 -0.89856,0.89857 7.5443,9.21915 11.16983,11.00806 3.86668,1.9079 9.71939,1.96202 15.70533,0.14522 z m -41.18065,-71.55808 c 12.27671,-3.65616 22.95004,-13.09837 28.28054,-25.0185 2.95645,-6.61126 3.59647,-21.00108 1.26391,-28.4169 -3.53583,-11.24133 -13.82003,-22.51466 -25.48232,-27.93319 -3.69236,-1.71554 -6.48361,-2.09609 -15.55222,-2.12035 -10.65846,-0.0285 -11.29562,0.094 -17.88378,3.43795 -9.91083,5.03048 -15.93126,10.86478 -20.00471,19.38624 -6.71381,14.04494 -6.71381,25.24756 0,39.2925 8.59526,17.98086 29.86052,27.18498 49.37858,21.37225 z m -10.43787,-5.71114 c -8.82737,-4.74491 -11.87594,-9.39353 -11.74715,-17.91272 0.0799,-5.28427 2.0841,-9.11117 7.18529,-13.71979 3.87165,-3.4978 4.40581,-3.67485 11.08708,-3.67485 6.85172,0 7.12802,0.10006 11.56184,4.18702 11.61538,10.70668 9.43046,23.58489 -5.2874,31.16477 -4.00952,2.06495 -8.90702,2.04795 -12.79966,-0.0444 z m 119.8121,6.10885 c 9.70393,-2.96247 13.15878,-4.91007 19.78404,-11.15286 7.40087,-6.97361 11.5108,-14.56478 13.40712,-24.76335 3.11742,-16.76572 -8.32307,-36.30983 -26.21566,-44.78494 -6.08206,-2.88087 -7.7253,-3.21506 -15.80863,-3.21506 -8.23385,0 -9.62215,0.29593 -15.9099,3.39138 -9.24901,4.55327 -18.71858,14.03809 -22.9026,22.93948 -2.82503,6.01018 -3.13477,7.6078 -3.13477,16.16914 0,8.57724 0.30697,10.15326 3.1603,16.22544 3.68189,7.83544 14.57827,19.30582 20.86445,21.96354 11.70587,4.94911 18.45058,5.76265 26.75565,3.22723 z m -19.8121,-6.10885 c -8.82737,-4.74491 -11.87594,-9.39353 -11.74715,-17.91272 0.0799,-5.28427 2.0841,-9.11117 7.18529,-13.71979 3.87165,-3.4978 4.40581,-3.67485 11.08708,-3.67485 6.85172,0 7.12802,0.10006 11.56184,4.18702 11.61538,10.70668 9.43046,23.58489 -5.2874,31.16477 -4.00952,2.06495 -8.90702,2.04795 -12.79966,-0.0444 z m 49.29991,215.74989 c -3.89376,-3.06284 -4.21802,-6.47765 -1.40143,-14.75876 l 2.44828,-7.19825 -4.21005,-2.46726 c -5.59793,-3.2806 -6.91999,-6.00448 -6.4291,-13.2461 0.21948,-3.23778 0.60005,-6.52394 0.84572,-7.30258 0.29837,-0.94567 -0.65404,-1.65519 -2.86866,-2.13706 -5.52,-1.20107 -8.18467,-4.50778 -8.18467,-10.15674 0,-2.9372 0.68955,-5.91325 1.74241,-7.52012 1.27996,-1.95347 1.65387,-4.19629 1.40881,-8.45055 -0.30643,-5.31968 -0.0881,-6.03677 2.68067,-8.80556 2.31031,-2.31032 3.915,-3.01427 6.87114,-3.01427 3.08257,0 4.4938,-0.67526 7.02944,-3.36353 4.70031,-4.98322 8.97729,-6.63647 17.16866,-6.63647 5.82148,0 7.09887,-0.28606 7.09887,-1.58971 0,-0.87434 -0.95961,-2.36675 -2.13246,-3.31647 l -2.13246,-1.72676 4.08141,-14.93353 c 7.51657,-27.50253 20.49297,-58.92695 31.87282,-77.18518 4.44422,-7.13046 4.69214,-7.34371 8.19676,-7.0506 l 3.61393,0.30225 0.27831,5.5 c 0.23573,4.65866 -2.0254,13.20406 -14.7814,55.86272 l -15.05971,50.36273 4.61542,4.93425 c 2.53848,2.71384 6.04011,7.95062 7.7814,11.63728 3.08469,6.53091 3.16598,7.06249 3.16598,20.70302 0,13.57279 -0.0915,14.18072 -3,19.92245 -3.82417,7.5495 -6.97289,10.65635 -14.74775,14.55167 -5.21928,2.61494 -7.25765,3.09711 -12.33763,2.91842 -3.34695,-0.11773 -6.5317,0.0618 -7.07721,0.39893 -0.5455,0.33714 -1.81746,3.33986 -2.82657,6.67272 -2.09944,6.93399 -2.69943,7.61183 -7.53771,8.51576 -2.7367,0.51129 -4.11977,0.19254 -6.17322,-1.4227 z m 7.52007,-0.98881 c 2.89309,-1.09995 6.38488,-10.2188 7.33657,-19.15951 l 0.59514,-5.59106 -4.14608,-1.65894 c -2.28035,-0.91241 -4.54977,-1.65893 -5.04317,-1.65893 -1.60399,0 -8.21842,21.53035 -7.49721,24.40386 1.03147,4.10972 4.15028,5.4152 8.75475,3.66458 z m 44.09103,-139.56844 c 15.62697,-52.46514 16.87724,-58.5 12.11972,-58.5 -3.22182,0 -7.52913,6.66243 -16.80918,26 -8.38998,17.48286 -15.41839,36.40341 -20.76135,55.88974 l -3.96828,14.47275 2.00404,2.13321 c 1.10222,1.17326 2.00404,2.88307 2.00404,3.79958 0,1.79347 9.03026,7.01251 10.15808,5.87087 0.36194,-0.36638 7.22576,-22.71615 15.25293,-49.66615 z M 279.10815,535.1964 c -3.1503,-1.27695 -3.92891,-2.73532 -7.93633,-14.86521 -3.07864,-9.31859 -4.02924,-11.20413 -5.38386,-10.67899 -7.41315,2.87382 -19.00466,0.78561 -26.93682,-4.85265 -4.76171,-3.38467 -6.81908,-6.39682 -10.16534,-14.88285 -2.01013,-5.09763 -2.2071,-6.97701 -1.78173,-17 0.38274,-9.01827 0.9666,-12.40139 2.92351,-16.94001 2.9556,-6.85484 6.53684,-12.39647 10.70438,-16.56402 l 3.1062,-3.1062 -3.13926,-8.22089 c -3.37558,-8.83974 -5.67935,-11.93766 -8.87747,-11.93766 -1.11179,0 -3.84739,-1.20836 -6.07912,-2.68524 -7.03729,-4.65707 -9.72191,-11.93617 -18.37225,-49.81476 l -0.68511,-3 2.05005,2.5 c 1.12752,1.375 4.38506,8.35 7.23898,15.5 6.70231,16.79146 8.58176,20.5 10.38921,20.5 2.38999,0 1.79683,-2.6037 -4.52588,-19.86653 -3.29694,-9.0016 -5.99276,-16.6516 -5.9907,-17 0.008,-1.41656 3.81778,5.90784 7.47204,14.36653 7.34899,17.01106 9.23597,15.67248 3.52422,-2.5 -2.27983,-7.2535 -3.9464,-13.38693 -3.70349,-13.62985 0.4613,-0.46129 1.25708,1.10179 7.06634,13.87985 5.83312,12.83054 7.77981,8.76854 2.75565,-5.75 -1.52263,-4.4 -3.15031,-8.86562 -3.61707,-9.92361 -0.83704,-1.8973 -0.82232,-1.89728 1.07591,9.5e-4 5.11828,5.11828 10.32967,14.85081 14.21591,26.54893 5.58766,16.81959 5.98142,19.77491 3.31607,24.8885 -2.03338,3.90112 -2.06183,4.33785 -0.60524,9.2894 0.84066,2.85771 2.54809,6.99583 3.7943,9.19583 l 2.26585,4 6.57282,-0.3336 c 7.38098,-0.37462 14.00238,1.2252 16.50183,3.98706 0.9191,1.0156 2.7487,1.84654 4.06577,1.84654 6.51933,0 11.29535,5.84051 11.29535,13.81289 0,2.60714 0.65512,4.47001 2,5.68711 1.4706,1.33088 2,3.07997 2,6.60786 0,4.36668 -0.34715,5.07687 -3.86259,7.90195 -3.83987,3.08581 -3.85483,3.12579 -2.54389,6.79713 0.72528,2.03118 1.33676,5.04306 1.35885,6.69306 0.0496,3.70237 -3.37591,9.53649 -6.00259,10.22338 -1.07238,0.28044 -1.94978,1.10778 -1.94978,1.83855 0,0.73076 2.7336,6.86578 6.07467,13.63336 6.82435,13.82323 7.14135,16.88225 2.27578,21.96081 -2.83124,2.95518 -7.44919,3.69045 -11.88517,1.89238 z m 10.92248,-2.92445 c 3.94083,-4.35458 3.27666,-7.6414 -4.82427,-23.87403 -8.53384,-17.1001 -9.09426,-17.5398 -15.211,-11.93422 l -3.61814,3.31578 5.38282,16.30346 c 5.78057,17.50813 6.04823,17.87941 12.97784,18.00159 2.30798,0.0407 4.20281,-0.60822 5.29275,-1.81258 z m -40.66958,-99.37577 c 0.93179,-0.71926 0.67514,-2.03448 -1.09166,-5.5943 -1.27041,-2.55968 -2.89224,-6.80096 -3.60405,-9.42508 -1.14455,-4.21938 -1.1001,-4.98562 0.3844,-6.62597 2.86909,-3.17031 2.90741,-7.97905 0.13897,-17.43702 -3.20438,-10.94727 -8.56354,-24.98152 -9.26983,-24.27524 -0.28946,0.28947 0.94076,5.91215 2.73384,12.49484 3.35241,12.30724 3.45667,16.5765 0.34169,13.9913 -0.89364,-0.74166 -2.47462,-3.33103 -3.5133,-5.75416 -2.49213,-5.81391 -3.20639,-4.84886 -1.15622,1.56219 1.98608,6.21064 1.29557,8.77735 -2.13005,7.91758 -1.33617,-0.33536 -2.70854,-0.15809 -3.0497,0.39393 -0.34117,0.55202 -1.71117,1.00367 -3.04444,1.00367 -2.70308,0 -4.92654,-3.73746 -9.96848,-16.75623 -1.54562,-3.99093 -2.99559,-7.07086 -3.22216,-6.8443 -0.87105,0.87105 4.81364,21.82652 7.19673,26.52932 2.70389,5.33588 7.99141,10.07121 11.24561,10.07121 2.98559,0 6.70158,3.33812 8.5464,7.67734 0.89386,2.10246 2.5413,5.9933 3.66098,8.6463 2.01633,4.77756 2.49431,4.97733 5.80127,2.42462 z m 0.25707,-201.31336 c -1.64953,-4.3386 -1.11853,-14.52247 1.00066,-19.19125 4.74416,-10.45183 13.03346,-17.24365 21.04556,-17.24365 3.54661,0 5.13864,0.54153 6.80422,2.31445 1.19587,1.27295 2.17431,2.84147 2.17431,3.48561 0,0.64413 -2.5875,2.47746 -5.75,4.07405 -7.62577,3.8499 -15.02624,11.87083 -19.72569,21.37953 -2.10565,4.2605 -3.99617,7.74636 -4.20114,7.74636 -0.20497,0 -0.81153,-1.1543 -1.34792,-2.5651 z m 242.39468,-1.1849 c -3.66215,-11.29704 -11.20968,-20.71119 -21.06281,-26.27195 -6.14939,-3.4705 -6.77641,-5.79564 -2.40275,-8.90996 3.91048,-2.7845 6.64494,-2.5946 12.70726,0.8825 9.10641,5.22305 15.36059,15.24781 15.3786,24.65019 0.0157,8.19024 -3.03077,14.5526 -4.6203,9.64922 z"
         id="path3008"
         inkscape:connector-curvature="0" />
      <path
         style="fill:#007dfa"
         d="m 368.31941,590.89792 c -1.0112,-0.74103 -2.88195,-5.73544 -4.59451,-12.26608 -5.128,-19.55507 -12.09648,-42.31898 -15.22797,-49.74519 -1.67884,-3.9813 -5.21108,-12.43761 -7.8494,-18.7918 -5.66755,-13.64981 -22.24922,-47.15781 -25.45887,-51.44693 -1.23474,-1.65 -12.05002,-18.525 -24.03396,-37.5 -11.98393,-18.975 -24.48183,-38.44631 -27.7731,-43.26958 -13.42633,-19.67595 -21.73937,-49.56282 -21.73856,-78.1541 5.3e-4,-18.63879 8.96,-44.8427 22.64912,-66.24225 4.53624,-7.09127 19.03996,-22.16527 26.44317,-27.48288 3.33176,-2.39316 7.93645,-5.71828 10.23264,-7.38918 5.85288,-4.25902 16.40675,-8.86947 31.36411,-13.70138 l 12.81079,-4.13847 22.47495,-0.39693 c 24.92582,-0.44021 28.40732,-0.0208 45.48399,5.47996 17.55067,5.65339 28.05195,11.37706 43.0907,23.48638 19.50519,15.70572 34.31709,39.06416 41.4699,65.39823 3.07217,11.31065 3.88636,38.25165 1.53855,50.9102 -3.98972,21.51122 -11.75766,41.23277 -22.33264,56.69902 -1.61742,2.36554 -12.75077,19.82598 -24.74076,38.80098 -11.98999,18.975 -23.32476,36.71811 -25.18838,39.42914 -6.87521,10.00147 -24.97208,48.84632 -33.57607,72.07086 -7.76335,20.95545 -14.60075,43.10385 -16.29193,52.77446 -0.62004,3.54555 -3.43791,6.72554 -5.95969,6.72554 -0.5975,0 -1.85393,-0.5625 -2.79208,-1.25 z M 367.7904,400.71577 c 6.28827,-1.90847 10.54122,-4.15981 15.60247,-8.25933 4.16737,-3.37549 5.53445,-6.30852 2.94039,-6.30852 -0.72028,0 -5.08293,0.95419 -9.69476,2.12043 -6.99935,1.76998 -10.1296,2.0222 -18.94039,1.52609 -5.80538,-0.32688 -11.95361,-0.87273 -13.66272,-1.21301 -5.05784,-1.00698 -5.3371,2.09249 -0.61408,6.81552 6.38677,6.38677 14.7999,8.22302 24.36909,5.31882 z m -40.20966,-70.54935 c 12.27,-3.65416 22.91605,-13.06812 28.2929,-25.0185 2.97038,-6.60186 3.6361,-22.8358 1.24782,-30.42875 -3.53106,-11.22618 -13.80584,-22.48845 -25.47859,-27.9273 -3.77392,-1.75843 -6.44465,-2.10055 -16.55222,-2.12035 -11.7934,-0.0231 -12.19894,0.0509 -18.88378,3.44391 -13.86992,7.04001 -21.9638,17.98879 -24.60402,33.28249 -1.52234,8.81822 -0.022,17.77287 4.59033,27.39625 8.7613,18.28017 30.88037,27.47956 51.38756,21.37225 z m -11.43787,-6.71114 c -8.82737,-4.74491 -11.87594,-9.39353 -11.74715,-17.91272 0.0799,-5.28427 2.0841,-9.11117 7.18529,-13.71979 3.87165,-3.4978 4.40581,-3.67485 11.08708,-3.67485 6.85172,0 7.12802,0.10006 11.56184,4.18702 11.61538,10.70668 9.43046,23.58489 -5.2874,31.16477 -4.00952,2.06495 -8.90702,2.04795 -12.79966,-0.0444 z m 122.26182,6.77309 c 13.00187,-3.95396 21.44065,-10.68692 26.90971,-21.47016 7.37924,-14.54952 7.56824,-25.11761 0.71058,-39.73105 -4.41707,-9.41262 -9.30759,-14.34644 -19.88211,-20.05814 l -8,-4.3211 -11,0 c -10.19578,0 -11.40167,0.21132 -16.49396,2.89047 -11.76751,6.1911 -18.1142,12.597 -23.3913,23.60953 -2.87886,6.00775 -3.11474,7.2991 -3.11474,17.05186 0,10.15041 0.14063,10.8364 3.69625,18.03073 9.87693,19.9846 30.92105,29.97191 50.56557,23.99786 z m -22.26182,-6.77309 c -8.82737,-4.74491 -11.87594,-9.39353 -11.74715,-17.91272 0.0799,-5.28427 2.0841,-9.11117 7.18529,-13.71979 3.87165,-3.4978 4.40581,-3.67485 11.08708,-3.67485 6.85172,0 7.12802,0.10006 11.56184,4.18702 11.61538,10.70668 9.43046,23.58489 -5.2874,31.16477 -4.00952,2.06495 -8.90702,2.04795 -12.79966,-0.0444 z m 49.29991,215.74989 c -3.90016,-3.06787 -4.21853,-6.47614 -1.38355,-14.81133 l 2.46616,-7.25082 -5.06599,-4.98671 -5.06599,-4.98671 0.60199,-5.26084 c 0.33109,-2.89346 0.72472,-6.33745 0.87473,-7.65332 0.22673,-1.98891 -0.35852,-2.57929 -3.46959,-3.5 -2.05828,-0.60913 -4.64578,-1.89062 -5.75,-2.84773 -2.68764,-2.3296 -2.69427,-8.6172 -0.0127,-12.02628 1.66266,-2.11373 1.90138,-3.51045 1.4331,-8.38486 -0.73643,-7.66567 1.77233,-11.18531 8.57752,-12.03374 3.20234,-0.39924 5.50058,-1.49725 7.9944,-3.81939 5.07845,-4.72884 7.67186,-5.80609 15.48962,-6.43407 7.79508,-0.62615 9.58392,-2.56182 5.4563,-5.90416 l -2.21084,-1.79023 4.08141,-14.93353 c 7.51657,-27.50253 20.49297,-58.92695 31.87282,-77.18518 4.44422,-7.13046 4.69214,-7.34371 8.19676,-7.0506 l 3.61394,0.30225 0.27831,5.5 c 0.23571,4.65825 -2.02172,13.19173 -14.75,55.7576 -8.26557,27.64169 -15.02831,50.94847 -15.02831,51.79285 0,0.84438 2.03344,3.70915 4.51876,6.36615 2.58544,2.76404 5.64628,7.55896 7.15412,11.20716 4.64196,11.23119 4.24341,28.31788 -0.90077,38.6181 -4.54703,9.10455 -16.28941,16.25814 -26.68718,16.25814 -5.59532,0 -6.20624,0.57026 -8.57043,8 -2.12283,6.67122 -3.01043,7.67123 -7.54137,8.49649 -2.72288,0.49594 -4.13014,0.16785 -6.17322,-1.43924 z m 7.52007,-0.98881 c 1.83176,-0.69643 2.99174,-2.52634 4.59581,-7.25 2.67945,-7.89044 3.88721,-17.81844 2.16765,-17.81844 -0.66081,0 -0.98295,-0.35357 -0.71588,-0.78571 0.26708,-0.43215 -0.26886,-0.81462 -1.19098,-0.84994 -0.92212,-0.0353 -2.86475,-0.39315 -4.31695,-0.79518 -2.60052,-0.71992 -2.69553,-0.5654 -6.29638,10.24103 -3.79575,11.39131 -3.95434,15.27258 -0.70164,17.17216 2.09352,1.22262 3.42246,1.24033 6.45837,0.0861 z m 44.09607,-139.56844 c 15.62139,-52.46453 16.87126,-58.5 12.11468,-58.5 -3.22182,0 -7.52913,6.66243 -16.80918,26 -8.38998,17.48286 -15.41839,36.40341 -20.76135,55.88974 l -3.96828,14.47275 2.00404,2.13321 c 1.10222,1.17326 2.00404,2.89755 2.00404,3.83175 0,1.01974 1.77865,2.56268 4.45067,3.86085 2.46108,1.19568 4.18624,2.64273 3.85914,3.237 -0.32535,0.59109 0.10775,0.3997 0.96244,-0.4253 0.85469,-0.825 8.1194,-23.55 16.1438,-50.5 z M 279.10815,535.1964 c -3.14599,-1.2752 -3.92953,-2.7371 -7.88534,-14.71218 -2.02828,-6.14004 -4.22602,-11.36527 -4.88386,-11.61162 -0.65785,-0.24635 -2.09608,-0.0918 -3.19608,0.34342 -6.16527,2.43938 -18.14772,-1.14011 -25.24032,-7.53998 -3.74248,-3.37695 -5.37317,-5.916 -7.63031,-11.88064 -2.5975,-6.86409 -2.82829,-8.46885 -2.4257,-16.86666 0.53705,-11.20235 4.17469,-20.69737 11.26313,-29.39918 2.49326,-3.06074 4.5332,-5.93528 4.5332,-6.38787 0,-0.45259 -1.41373,-4.52507 -3.14161,-9.04995 -3.37783,-8.84562 -5.68123,-11.94382 -8.87983,-11.94382 -1.11179,0 -3.84739,-1.20836 -6.07912,-2.68524 -7.03729,-4.65707 -9.72191,-11.93617 -18.37225,-49.81476 l -0.68511,-3 2.05005,2.5 c 1.12752,1.375 4.38506,8.35 7.23898,15.5 6.70231,16.79146 8.58176,20.5 10.38921,20.5 2.38999,0 1.79683,-2.6037 -4.52588,-19.86653 -3.29694,-9.0016 -5.99276,-16.6516 -5.9907,-17 0.008,-1.41656 3.81778,5.90784 7.47204,14.36653 7.34899,17.01106 9.23597,15.67248 3.52422,-2.5 -2.27983,-7.2535 -3.9464,-13.38693 -3.70349,-13.62985 0.4613,-0.46129 1.25708,1.10179 7.06634,13.87985 5.83312,12.83054 7.77981,8.76854 2.75565,-5.75 -1.52263,-4.4 -3.15031,-8.86562 -3.61707,-9.92361 -0.83704,-1.8973 -0.82232,-1.89728 1.07591,9.5e-4 5.11828,5.11828 10.32967,14.85081 14.21591,26.54893 5.59094,16.82946 5.9822,19.77342 3.3094,24.90129 -2.02117,3.8777 -2.05821,4.383 -0.66518,9.07383 0.81134,2.7321 2.64491,7.11664 4.07458,9.74342 l 2.59941,4.77597 7.19427,-0.0584 c 6.74283,-0.0547 9.76285,0.77018 15.69427,4.28664 0.825,0.4891 3.52038,1.51065 5.98973,2.2701 5.22877,1.60813 7.46353,5.07553 7.33497,11.38083 -0.0578,2.83652 0.61025,4.82221 2.29687,6.82673 3.23292,3.84226 3.09241,8.11313 -0.38119,11.58673 -1.51778,1.51779 -3.40088,2.97337 -4.18465,3.23463 -1.21377,0.40459 -1.16989,1.38433 0.29596,6.60859 1.53773,5.48042 1.56525,6.50634 0.25849,9.63387 -0.80438,1.92516 -2.39574,4.08309 -3.53635,4.79541 -1.14061,0.71238 -2.07383,2.06232 -2.07383,2.99993 0,0.93761 2.7336,7.24187 6.07467,14.00945 6.82435,13.82323 7.14135,16.88225 2.27578,21.96081 -2.83124,2.95518 -7.44919,3.69045 -11.88517,1.89238 z m 10.92248,-2.92445 c 3.94199,-4.35586 3.27738,-7.63997 -4.83642,-23.89839 l -7.6227,-15.27436 -3.4469,0.35361 c -3.79486,0.38931 -7.48174,3.13262 -7.48174,5.56698 0,0.85904 2.3625,8.71796 5.25,17.46426 5.63762,17.07647 5.93108,17.47858 12.84501,17.60048 2.30798,0.0407 4.20281,-0.60822 5.29275,-1.81258 z m -40.66958,-99.37577 c 0.93179,-0.71926 0.67514,-2.03448 -1.09166,-5.5943 -1.27041,-2.55968 -2.89224,-6.80096 -3.60405,-9.42508 -1.14455,-4.21938 -1.1001,-4.98562 0.3844,-6.62597 2.86909,-3.17031 2.90741,-7.97905 0.13897,-17.43702 -3.20438,-10.94727 -8.56354,-24.98152 -9.26983,-24.27524 -0.28946,0.28947 0.94076,5.91215 2.73384,12.49484 3.35241,12.30724 3.45667,16.5765 0.34169,13.9913 -0.89364,-0.74166 -2.47462,-3.33103 -3.5133,-5.75416 -2.49213,-5.81391 -3.20639,-4.84886 -1.15622,1.56219 1.98608,6.21064 1.29557,8.77735 -2.13005,7.91758 -1.33617,-0.33536 -2.70854,-0.15809 -3.0497,0.39393 -0.34117,0.55202 -1.71117,1.00367 -3.04444,1.00367 -2.70308,0 -4.92654,-3.73746 -9.96848,-16.75623 -1.54562,-3.99093 -2.99559,-7.07086 -3.22216,-6.8443 -0.87105,0.87105 4.81364,21.82652 7.19673,26.52932 2.70389,5.33588 7.99141,10.07121 11.24561,10.07121 2.98559,0 6.70158,3.33812 8.5464,7.67734 0.89386,2.10246 2.5413,5.9933 3.66098,8.6463 2.01633,4.77756 2.49431,4.97733 5.80127,2.42462 z m 0.25707,-201.31336 c -1.64953,-4.3386 -1.11853,-14.52247 1.00066,-19.19125 4.74416,-10.45183 13.03346,-17.24365 21.04556,-17.24365 3.54661,0 5.13864,0.54153 6.80422,2.31445 1.19587,1.27295 2.17431,2.84147 2.17431,3.48561 0,0.64413 -2.5875,2.47746 -5.75,4.07405 -7.62577,3.8499 -15.02624,11.87083 -19.72569,21.37953 -2.10565,4.2605 -3.99617,7.74636 -4.20114,7.74636 -0.20497,0 -0.81153,-1.1543 -1.34792,-2.5651 z m 242.39468,-1.1849 c -3.66215,-11.29704 -11.20968,-20.71119 -21.06281,-26.27195 -6.14939,-3.4705 -6.77641,-5.79564 -2.40275,-8.90996 3.91048,-2.7845 6.64494,-2.5946 12.70726,0.8825 9.10641,5.22305 15.36059,15.24781 15.3786,24.65019 0.0157,8.19024 -3.03077,14.5526 -4.6203,9.64922 z"
         id="path3006"
         inkscape:connector-curvature="0" />
      <path
         style="fill:#69696a"
         d="m 368.31941,590.89792 c -1.0112,-0.74103 -2.88195,-5.73544 -4.59451,-12.26608 -5.128,-19.55507 -12.09648,-42.31898 -15.22797,-49.74519 -1.67884,-3.9813 -5.21108,-12.43761 -7.8494,-18.7918 -5.66755,-13.64981 -22.24922,-47.15781 -25.45887,-51.44693 -1.23474,-1.65 -12.05002,-18.525 -24.03396,-37.5 -11.98393,-18.975 -24.48183,-38.44631 -27.7731,-43.26958 -13.42633,-19.67595 -21.73937,-49.56282 -21.73856,-78.1541 5.3e-4,-18.63879 8.96,-44.8427 22.64912,-66.24225 4.53624,-7.09127 19.03996,-22.16527 26.44317,-27.48288 3.33176,-2.39316 7.93645,-5.71828 10.23264,-7.38918 5.85288,-4.25902 16.40675,-8.86947 31.36411,-13.70138 l 12.81079,-4.13847 22.47495,-0.39693 c 24.92582,-0.44021 28.40732,-0.0208 45.48399,5.47996 17.55067,5.65339 28.05195,11.37706 43.0907,23.48638 19.50519,15.70572 34.31709,39.06416 41.4699,65.39823 3.07217,11.31065 3.88636,38.25165 1.53855,50.9102 -3.98972,21.51122 -11.75766,41.23277 -22.33264,56.69902 -1.61742,2.36554 -12.75077,19.82598 -24.74076,38.80098 -11.98999,18.975 -23.32476,36.71811 -25.18838,39.42914 -6.87521,10.00147 -24.97208,48.84632 -33.57607,72.07086 -7.76335,20.95545 -14.60075,43.10385 -16.29193,52.77446 -0.62004,3.54555 -3.43791,6.72554 -5.95969,6.72554 -0.5975,0 -1.85393,-0.5625 -2.79208,-1.25 z m 4.66185,-31.69195 c 0.8236,-4.11801 14.94142,-42.3374 20.18114,-54.63385 11.80845,-27.7118 20.06103,-41.97312 63.32035,-109.4242 24.01053,-37.43785 29.58966,-50.57719 32.69258,-76.99387 2.19061,-18.64968 1.99985,-21.36202 -3.10293,-44.12131 -2.42216,-10.80323 -11.92592,-29.72872 -19.88184,-39.59207 -9.48336,-11.75699 -14.43293,-16.41943 -24.77274,-23.33561 -11.90854,-7.9655 -17.92319,-10.90477 -31.27495,-15.28364 -12.48117,-4.09335 -23.23712,-5.67717 -38.47377,-5.6653 -26.69611,0.0208 -44.20539,4.94598 -66.25054,18.63554 -16.34058,10.14714 -25.29167,18.97245 -34.5543,34.06873 -8.30179,13.53029 -9.52094,16.17522 -13.74539,29.82031 -3.44689,11.13352 -3.74021,13.08186 -4.21049,27.96722 -0.52516,16.62242 0.30174,23.54703 4.71689,39.5 3.44534,12.44882 9.78042,26.17377 15.92432,34.5 2.02921,2.75 14.73892,22.55 28.24378,44 24.11077,38.29552 41.85506,70.32747 49.85605,90 7.49332,18.42428 11.21769,28.6675 14.54376,40 1.93709,6.6 3.72754,12.59102 3.97877,13.31338 0.69576,2.00047 2.1418,0.58221 2.80931,-2.75533 z m 1.9641,-116.52685 c -3.49229,-1.51871 -6.3912,-6.39511 -10.83009,-18.21788 -1.40694,-3.74733 -3.8051,-8.38832 -5.32925,-10.31332 -1.52415,-1.925 -4.62139,-6.02296 -6.88276,-9.10658 l -4.11158,-5.60659 3.67559,1.31269 c 9.21952,3.29263 21.59109,0.0798 31.9256,-8.291 4.43023,-3.5884 5.4975,-6.29166 2.5,-6.33217 -0.9625,-0.013 2.09175,-1.74692 6.78721,-3.85313 10.49603,-4.70813 15.42035,-7.811 19.96279,-12.57877 3.17274,-3.33013 3.3344,-3.76684 1.72897,-4.6705 -1.96862,-1.10809 -1.43068,-2.87395 0.8755,-2.87395 2.24495,0 6.39553,4.61395 6.39553,7.10953 0,2.14093 -0.0544,2.15123 -2.01048,0.38099 -1.95275,-1.76722 -2.08445,-1.75014 -4.58694,0.59501 -5.45889,5.11566 -12.52727,20.58292 -17.3453,37.95554 -1.76438,6.3619 -1.76262,6.6046 0.0643,8.86078 2.78889,3.44413 2.52303,9.62966 -0.49899,11.60976 -1.30756,0.85675 -3.16239,3.61323 -4.12184,6.12551 -1.49091,3.9039 -2.48978,4.91483 -6.87261,6.95556 -5.90316,2.74864 -6.96161,2.83635 -11.32568,0.93852 z m -41.82928,-54.71223 c -8.29252,-6.03585 -11.56108,-7.41334 -12.71176,-5.35719 -1.1937,2.13302 -2.76145,0.98575 -2.76145,-2.0208 0,-2.81412 3.20962,-6.44098 5.7,-6.44098 1.32222,0 1.43333,0.26667 0.5,1.2 -2.75152,2.75152 -2.33893,3.04126 14.8,10.39323 3.025,1.29762 4.78127,2.36998 3.90281,2.38303 -0.87845,0.0131 -2.01551,0.96124 -2.52679,2.10707 -0.89486,2.00546 -1.15286,1.92083 -6.90281,-2.26436 z m 22.27679,1.44379 c 2.8875,-0.202 7.6125,-0.202 10.5,0 2.8875,0.202 0.525,0.36728 -5.25,0.36728 -5.775,0 -8.1375,-0.16528 -5.25,-0.36728 z m -9.47917,-0.86693 c 0.33229,-0.33229 1.19479,-0.36781 1.91667,-0.0789 0.79773,0.31922 0.56078,0.55618 -0.60417,0.60416 -1.05416,0.0434 -1.64479,-0.19293 -1.3125,-0.52522 z m 27,0 c 0.33229,-0.33229 1.19479,-0.36781 1.91667,-0.0789 0.79773,0.31922 0.56078,0.55618 -0.60417,0.60416 -1.05416,0.0434 -1.64479,-0.19293 -1.3125,-0.52522 z m -9.56331,-24.48571 c -7.32739,-3.86704 -10.0335,-13.5831 -5.74301,-20.61978 2.3761,-3.89697 8.67635,-7.29034 13.53549,-7.29034 4.85914,0 11.15939,3.39337 13.53549,7.29034 1.17728,1.9308 1.95703,5.00264 1.95703,7.70966 0,11.53751 -12.62375,18.53661 -23.285,12.91012 z m -51.95752,-31.63352 c 1.7875,-0.22182 4.7125,-0.22182 6.5,0 1.7875,0.22183 0.325,0.40333 -3.25,0.40333 -3.575,0 -5.0375,-0.1815 -3.25,-0.40333 z m 106.25,-0.86171 c -3.01957,-1.23625 -3.0882,-1.33013 -0.5,-0.68389 1.65,0.41199 6.15,0.74906 10,0.74906 3.85,0 8.35,-0.33707 10,-0.74906 2.5882,-0.64624 2.51957,-0.55236 -0.5,0.68389 -1.925,0.78813 -6.2,1.43295 -9.5,1.43295 -3.3,0 -7.575,-0.64482 -9.5,-1.43295 z m -9.23569,-2.85432 c -3.06712,-1.60001 -7.46267,-4.56736 -6.73682,-4.5479 1.25754,0.0337 12.06944,5.98651 10.86343,5.98117 -0.76501,-0.003 -2.62198,-0.64836 -4.12661,-1.43327 z m 38.62784,-1.92526 c 3.79069,-1.99942 7.16569,-3.62676 7.5,-3.61631 1.4112,0.0441 -9.02233,5.97247 -11.58591,6.58315 -1.54343,0.36766 0.29523,-0.96742 4.08591,-2.96684 z m -130.89215,-3.32795 c -8.82737,-4.74491 -11.87594,-9.39353 -11.74715,-17.91272 0.0799,-5.28427 2.0841,-9.11117 7.18529,-13.71979 3.87165,-3.4978 4.40581,-3.67485 11.08708,-3.67485 6.85172,0 7.12802,0.10006 11.56184,4.18702 11.61538,10.70668 9.43046,23.58489 -5.2874,31.16477 -4.00952,2.06495 -8.90702,2.04795 -12.79966,-0.0444 z m 100,0 c -8.82737,-4.74491 -11.87594,-9.39353 -11.74715,-17.91272 0.0799,-5.28427 2.0841,-9.11117 7.18529,-13.71979 3.87165,-3.4978 4.40581,-3.67485 11.08708,-3.67485 6.85172,0 7.12802,0.10006 11.56184,4.18702 11.61538,10.70668 9.43046,23.58489 -5.2874,31.16477 -4.00952,2.06495 -8.90702,2.04795 -12.79966,-0.0444 z m -17.94113,-1.83916 c -1.06762,-0.80751 -1.46022,-1.4682 -0.87244,-1.4682 0.58777,0 1.62888,0.675 2.31357,1.5 1.5572,1.87632 1.06734,1.86551 -1.44113,-0.0318 z m -4.45848,-4.76368 c -1.26492,-2.10631 -1.24361,-2.12762 0.47833,-0.47833 0.99123,0.94941 1.58698,1.94144 1.3239,2.20452 -0.26308,0.26308 -1.07408,-0.5137 -1.80223,-1.72619 z m 68.89961,-2.01526 c 0,-0.41566 1.19822,-3.10329 2.66272,-5.9725 1.46449,-2.86922 3.23439,-7.01676 3.9331,-9.21676 0.69871,-2.2 1.30049,-3.20356 1.33728,-2.23013 0.0816,2.15824 -4.15586,12.78237 -6.3446,15.90724 -0.87367,1.24734 -1.5885,1.92781 -1.5885,1.51215 z m -73.55257,-3.96426 c -2.5205,-4.15908 -5.32683,-10.81179 -5.36782,-12.725 -0.0177,-0.825 1.03443,1.09361 2.33801,4.26357 1.30358,3.16996 3.12885,6.92151 4.05616,8.33676 0.92732,1.41526 1.51391,2.74531 1.30356,2.95567 -0.21036,0.21036 -1.25882,-1.06359 -2.32991,-2.831 z m -31.36848,-12.14167 c -0.0434,-1.05416 0.19292,-1.64479 0.52522,-1.3125 0.33229,0.33229 0.36781,1.19479 0.0789,1.91667 -0.31922,0.79773 -0.55618,0.56078 -0.60416,-0.60417 z m -86.92106,-4.58333 c 0,-1.375 0.22698,-1.9375 0.50439,-1.25 0.27741,0.6875 0.27741,1.8125 0,2.5 -0.27741,0.6875 -0.50439,0.125 -0.50439,-1.25 z m 112.19152,-6 c 0,-4.675 0.17226,-6.5875 0.3828,-4.25 0.21053,2.3375 0.21053,6.1625 0,8.5 -0.21054,2.3375 -0.3828,0.425 -0.3828,-4.25 z m -24.0066,-0.5 c 0.004,-4.4 0.17944,-6.07561 0.39069,-3.72357 0.21124,2.35204 0.20827,5.95204 -0.007,8 -0.21487,2.04796 -0.38771,0.12357 -0.38408,-4.27643 z m 111.85214,5 c -0.0204,-1.65 0.18706,-2.44606 0.46099,-1.76903 0.27392,0.67703 0.29059,2.02703 0.0371,3 -0.25354,0.97297 -0.47766,0.41903 -0.49804,-1.23097 z m -201.03706,-4.5 c 0,-1.375 0.22698,-1.9375 0.50439,-1.25 0.27741,0.6875 0.27741,1.8125 0,2.5 -0.27741,0.6875 -0.50439,0.125 -0.50439,-1.25 z m 201.92106,-0.41667 c -0.0434,-1.05416 0.19293,-1.64479 0.52522,-1.3125 0.33229,0.3323 0.36781,1.1948 0.0789,1.91667 -0.31922,0.79773 -0.55618,0.56078 -0.60416,-0.60417 z m -0.884,-5.08333 c -0.0204,-1.65 0.18706,-2.44606 0.46099,-1.76903 0.27392,0.67703 0.29059,2.02703 0.0371,3 -0.25354,0.97297 -0.47766,0.41903 -0.49804,-1.23097 z m -200.03706,-0.5 c 0,-1.375 0.22698,-1.9375 0.50439,-1.25 0.27741,0.6875 0.27741,1.8125 0,2.5 -0.27741,0.6875 -0.50439,0.125 -0.50439,-1.25 z m 112.86585,-3.72976 c -0.039,-2.01809 3.16069,-9.52065 5.65178,-13.25237 1.27846,-1.91518 2.32448,-3.13685 2.32448,-2.71482 0,0.42202 -0.72275,1.87038 -1.60612,3.21856 -0.88336,1.34819 -2.67268,5.04486 -3.97626,8.21482 -1.30358,3.16996 -2.38083,5.21018 -2.39388,4.53381 z m 86.05521,-0.29845 c -0.0434,-0.84052 -1.65395,-4.81469 -3.57895,-8.83149 -3.80855,-7.9471 -4.38318,-9.84622 -1.9115,-6.31741 2.36753,3.38012 6.57999,14.21061 6.03987,15.52886 -0.26726,0.65228 -0.50458,0.48816 -0.54942,-0.37996 z M 393.74326,259.4434 c 0.72815,-1.21249 1.53915,-1.98927 1.80223,-1.72619 0.26308,0.26308 -0.33267,1.25511 -1.3239,2.20452 -1.72194,1.64929 -1.74325,1.62798 -0.47833,-0.47833 z m 9.30079,-8.29548 c 3.77209,-2.75 7.21315,-5 7.6468,-5 0.43364,0 1.61275,-0.2502 2.62023,-0.556 1.00749,-0.3058 -0.41821,0.65368 -3.16821,2.13216 -2.75,1.47849 -6.63976,3.97869 -8.6439,5.556 -2.00415,1.57731 -4.01952,2.86784 -4.47859,2.86784 -0.45908,0 2.25158,-2.25 6.02367,-5 z m 43.09882,-2.13952 c -3.85,-2.19246 -5.875,-3.68168 -4.5,-3.30937 3.42524,0.92746 14.61409,7.54099 12.47251,7.37228 -0.53488,-0.0421 -4.12251,-1.87045 -7.97251,-4.06291 z m -30.22917,-4.46465 c 0.33229,-0.33229 1.19479,-0.36782 1.91667,-0.0789 0.79773,0.31923 0.56078,0.55619 -0.60417,0.60417 -1.05416,0.0434 -1.64479,-0.19293 -1.3125,-0.52522 z m 20,0 c 0.33229,-0.33229 1.19479,-0.36782 1.91667,-0.0789 0.79773,0.31923 0.56078,0.55619 -0.60417,0.60417 -1.05416,0.0434 -1.64479,-0.19293 -1.3125,-0.52522 z m -124.4944,-1.12933 c 2.35204,-0.21124 5.95204,-0.20827 8,0.007 2.04796,0.21488 0.12357,0.38772 -4.27643,0.38409 -4.4,-0.004 -6.07561,-0.17944 -3.72357,-0.39069 z m 112,0 c 2.35204,-0.21124 5.95204,-0.20827 8,0.007 2.04796,0.21488 0.12357,0.38772 -4.27643,0.38409 -4.4,-0.004 -6.07561,-0.17944 -3.72357,-0.39069 z m 42.02348,295.79075 c -3.91004,-3.07564 -4.21934,-6.47376 -1.35564,-14.8934 l 2.49408,-7.3329 -3.19204,-2.91547 c -3.00839,-2.74775 -3.06234,-2.91548 -0.93779,-2.91548 1.23984,0 2.49746,-0.6338 2.79472,-1.40844 0.29726,-0.77465 1.78777,-1.92509 3.31224,-2.55655 2.34444,-0.9711 3.62409,-0.77117 8.30013,1.2968 6.42292,2.84052 7.05209,3.62456 7.75845,9.66819 0.52315,4.47615 0.54979,4.50318 5.02594,5.09981 l 4.5,0.5998 -5.62756,0.1502 c -3.13485,0.0837 -6.06612,0.70387 -6.61768,1.40019 -0.54457,0.6875 -1.77769,3.725 -2.74026,6.75 -2.12283,6.67122 -3.01043,7.67123 -7.54137,8.49649 -2.72288,0.49594 -4.13014,0.16785 -6.17322,-1.43924 z m 7.52007,-0.98881 c 1.83176,-0.69643 2.99174,-2.52634 4.59581,-7.25 2.67945,-7.89044 3.88721,-17.81844 2.16765,-17.81844 -0.66081,0 -0.98295,-0.35357 -0.71588,-0.78571 0.26708,-0.43215 -0.26886,-0.81462 -1.19098,-0.84994 -0.92212,-0.0353 -2.86475,-0.39315 -4.31695,-0.79518 -2.60052,-0.71992 -2.69553,-0.5654 -6.29638,10.24103 -3.79575,11.39131 -3.95434,15.27258 -0.70164,17.17216 2.09352,1.22262 3.42246,1.24033 6.45837,0.0861 z m -193.8547,-3.01996 c -3.14599,-1.2752 -3.92953,-2.7371 -7.88534,-14.71218 -2.02828,-6.14004 -4.22602,-11.36527 -4.88386,-11.61162 -0.65785,-0.24635 -2.09608,-0.0918 -3.19608,0.34342 -3.08371,1.22011 -8.63264,0.93015 -12.5,-0.65321 -3.12611,-1.27987 -3.17952,-1.35917 -0.5,-0.74231 1.65,0.37986 4.53164,0.72142 6.40364,0.75903 3.18165,0.0639 3.50777,-0.23833 5,-4.63424 1.69441,-4.99148 6.79937,-11.02677 11.33773,-13.40391 2.99794,-1.57029 6.98836,-1.0265 8.84006,1.20465 1.79119,2.15826 3.70633,1.67537 5.3466,-1.34811 0.82054,-1.5125 1.50991,-2.15288 1.53193,-1.42308 0.022,0.72981 -1.30996,2.67693 -2.95996,4.32693 -1.65,1.65 -3,3.61576 -3,4.36837 0,0.7526 2.7336,6.90549 6.07467,13.67307 6.82435,13.82323 7.14135,16.88225 2.27578,21.96081 -2.83124,2.95518 -7.44919,3.69045 -11.88517,1.89238 z m 10.92248,-2.92445 c 3.94199,-4.35586 3.27738,-7.63997 -4.83642,-23.89839 l -7.6227,-15.27436 -3.4469,0.35361 c -3.79486,0.38931 -7.48174,3.13262 -7.48174,5.56698 0,0.85904 2.3625,8.71796 5.25,17.46426 5.63762,17.07647 5.93108,17.47858 12.84501,17.60048 2.30798,0.0407 4.20281,-0.60822 5.29275,-1.81258 z m 204.61224,-9.34559 c 0.275,-0.25851 3.52927,-2.05813 7.23171,-3.99914 7.25915,-3.80564 8.36271,-3.3504 1.46661,0.60499 -3.76869,2.16161 -9.95514,4.5756 -8.69832,3.39415 z m 18.17672,-14.50999 c 1.82781,-3.35393 3.48181,-5.94036 3.67558,-5.74762 0.56146,0.55849 -4.10809,9.44656 -5.62387,10.70455 -0.75624,0.62763 0.12049,-1.60299 1.94829,-4.95693 z m -55.25476,-0.41426 c -0.68116,-1.27277 -0.90449,-4.01907 -0.5489,-6.75 1.28806,-9.89233 1.43625,-9.2976 -2.61539,-10.49667 -5.64241,-1.66984 -7.75767,-3.96204 -7.75767,-8.4066 0,-2.10026 0.69982,-4.69217 1.55517,-5.75979 1.50228,-1.87512 1.51928,-1.86685 0.5,0.24313 -0.58035,1.20134 -1.05517,3.79546 -1.05517,5.7647 0,2.96633 0.55743,3.92031 3.25,5.562 1.7875,1.08986 4.32001,1.98325 5.62781,1.9853 2.20328,0.003 2.33215,-0.28181 1.7557,-3.8867 -0.72914,-4.55981 1.24343,-10.9865 4.31488,-14.05795 1.94362,-1.94362 1.98229,-2.28499 0.56854,-5.01888 -0.83431,-1.61337 -1.51693,-4.72587 -1.51693,-6.91665 0,-3.57769 -0.27999,-4.02565 -2.75,-4.39983 -2.33314,-0.35344 -2.20992,-0.4393 0.81291,-0.56642 2.56131,-0.10771 4.38857,-1.01828 6.5,-3.23911 2.82818,-2.97472 7.4754,-5.95838 9.13743,-5.86652 0.43981,0.0243 -0.90696,0.94486 -2.99282,2.04568 -5.2086,2.74885 -7.69916,7.16503 -7.70378,13.66012 -0.004,6.0173 1.31852,6.67908 6.49626,3.25 4.5234,-2.99573 12.94425,-2.74168 17.76787,0.53605 4.93899,3.35613 4.7843,5.04137 -0.22803,2.48427 -6.24868,-3.18783 -13.42497,-2.74686 -20.01121,1.22968 -5.77192,3.48487 -7.82064,7.03396 -7.93724,13.75 -0.0959,5.52203 1.0112,6.51543 4.97605,4.46513 6.16081,-3.18588 20.6115,-1.04269 27.35956,4.05771 3.21208,2.4278 1.17204,2.62968 -3.90025,0.38597 -2.86483,-1.26725 -7.85379,-2.32597 -12.44273,-2.64051 -6.51295,-0.4464 -8.28823,-0.20477 -11.85161,1.61314 -2.30516,1.176 -4.87547,3.46142 -5.7118,5.07871 -1.7533,3.3905 -1.99003,9.29421 -0.48543,12.10559 0.56935,1.06384 0.81019,1.93426 0.53519,1.93426 -0.275,0 -1.01678,-0.96561 -1.64841,-2.14581 z M 241.375,504.61187 c -2.05267,-1.39483 -3.73213,-2.77547 -3.73213,-3.0681 0,-0.29262 1.2375,0.32998 2.75,1.38356 1.5125,1.05358 3.65,2.42053 4.75,3.03768 1.1,0.61715 1.54196,1.13578 0.98213,1.1525 -0.55982,0.0167 -2.69732,-1.11081 -4.75,-2.50564 z m 275.46282,-5.96395 c -0.0204,-1.65 0.18706,-2.44606 0.46099,-1.76903 0.27392,0.67703 0.29059,2.02703 0.0371,3 -0.25354,0.97297 -0.47766,0.41903 -0.49804,-1.23097 z m -282.91552,-0.75 c -0.531,-0.6875 -2.1611,-4.29223 -3.62244,-8.01052 -2.23428,-5.68496 -2.63031,-8.15093 -2.48928,-15.5 l 0.16772,-8.73948 0.63146,10 c 0.52341,8.28896 1.1684,11.15496 3.76957,16.75 3.08179,6.62886 3.46221,7.98488 1.54297,5.5 z m 284.07553,-11.25 c -0.003,-4.95 0.16605,-7.10108 0.37577,-4.78017 0.20972,2.3209 0.21222,6.3709 0.006,9 -0.20667,2.62909 -0.37827,0.73017 -0.38131,-4.21983 z m -229.27601,-0.91667 c -0.0434,-1.05416 0.19292,-1.64479 0.52522,-1.3125 0.33229,0.33229 0.36781,1.19479 0.0789,1.91667 -0.31922,0.79773 -0.55618,0.56078 -0.60416,-0.60417 z m -1.89515,-5.9516 c -0.6818,-1.88548 -2.33069,-3.83326 -3.81915,-4.51145 -7.57263,-3.45032 -19.15852,-1.99619 -25.00666,3.13855 -1.88384,1.65403 -3.74755,2.67758 -4.14158,2.27455 -0.39402,-0.40303 1.20609,-2.44543 3.55581,-4.53867 5.0041,-4.45788 11.22508,-6.27997 19.84717,-5.81312 5.74385,0.31101 5.88789,0.2553 6.19352,-2.39516 0.1721,-1.49247 -0.57999,-4.7321 -1.67129,-7.19919 -1.82827,-4.1331 -2.43637,-4.61706 -7.73793,-6.15826 -7.0515,-2.04993 -15.03169,-1.43603 -20.08421,1.54503 -4.54074,2.6791 -5.7701,1.61436 -1.81948,-1.57584 4.31038,-3.48072 9.87884,-4.7178 17.7465,-3.94254 l 6.7535,0.66547 0,-4.5135 c 0,-5.44529 -1.62271,-9.35308 -4.22712,-10.17968 -1.05798,-0.33579 -1.65915,-0.87498 -1.33594,-1.19819 0.32321,-0.32321 1.81962,0.32228 3.32536,1.43443 1.50573,1.11216 4.32821,2.31989 6.27216,2.68385 3.98479,0.74606 7.96554,3.19473 7.96554,4.89982 0,0.62394 -0.5625,0.39368 -1.25,-0.51167 -1.13227,-1.49106 -6.69955,-4.18641 -7.2585,-3.51414 -0.12712,0.15289 -0.53639,3.48401 -0.9095,7.4025 -0.55037,5.78022 -0.40187,7.23063 0.78705,7.68686 0.80599,0.30928 1.71355,-0.0842 2.01681,-0.87452 0.31331,-0.81649 1.8741,-1.43686 3.61498,-1.43686 2.2222,0 3.33076,-0.61795 4.03631,-2.25 0.80805,-1.86912 0.87345,-1.69834 0.38637,1.0089 -0.46322,2.57461 -0.0443,3.90305 1.99507,6.32672 3.44007,4.08829 3.37703,8.27261 -0.17821,11.82784 -1.51778,1.51779 -3.41319,2.97748 -4.21201,3.24375 -1.23754,0.41251 -1.26285,1.11681 -0.17108,4.76082 1.53488,5.12296 1.0268,6.41578 -0.67349,1.7137 z m 2.85137,-9.14992 c 7.53681,-3.89743 3.5276,-14.48181 -5.48551,-14.48181 -1.40231,0 -2.54778,0.1125 -2.54547,0.25 0.002,0.1375 1.1083,2.42624 2.45778,5.08609 1.69269,3.33634 2.27286,5.73974 1.87081,7.75 -0.66902,3.3451 -0.32099,3.4763 3.70239,1.39572 z m 226.96483,5.40664 c 0,-0.79468 -1.58967,-4.76195 -3.53259,-8.81616 -1.94293,-4.0542 -2.86984,-6.82124 -2.0598,-6.14897 1.85424,1.53888 7.14278,14.85963 6.25282,15.74958 -0.36324,0.36324 -0.66043,0.0102 -0.66043,-0.78445 z m -66.38995,-5.83438 c -0.32342,-1.95474 -0.59299,-4.6096 -0.59904,-5.8997 -0.0115,-2.45795 3.48785,-8.15437 5.00934,-8.15437 0.48628,0 -0.24089,1.21394 -1.61594,2.69764 -1.96891,2.12449 -2.43681,3.55863 -2.20225,6.75 0.2877,3.91444 0.43398,4.06938 4.29784,4.55236 5.21089,0.65136 5.12695,2.34957 -0.15095,3.05407 -4.11431,0.54917 -4.15615,0.52269 -4.739,-3 z M 228.6974,464.41816 c -0.0726,-1.63832 3.08315,-9.46589 3.60566,-8.94338 0.22541,0.2254 -0.48139,2.60657 -1.57065,5.29148 -1.08926,2.68491 -2.00502,4.32827 -2.03501,3.6519 z m 3.94921,-10.85357 c 0.005,-1.12248 3.77925,-7.41667 4.44784,-7.41667 0.26453,0 -0.48516,1.6875 -1.66598,3.75 -2.64475,4.6195 -2.78651,4.80636 -2.78186,3.66667 z m 263.88361,-3.12598 c -4.89373,-2.58942 -8.40297,-3.66684 -13.5,-4.14482 l -6.88735,-0.64587 6.49103,-0.5 c 7.28453,-0.56112 8.99155,-2.57402 4.95489,-5.84271 l -2.21084,-1.79023 4.08141,-14.93353 c 7.51657,-27.50253 20.49297,-58.92695 31.87282,-77.18518 4.44422,-7.13046 4.69214,-7.34371 8.19676,-7.0506 l 3.61393,0.30225 0.27831,5.5 c 0.23575,4.65904 -2.02889,13.21574 -14.81113,55.96224 -8.29919,27.75423 -14.87906,51.26673 -14.62193,52.25 0.59923,2.29144 0.41409,2.24374 -7.4579,-1.92155 z m 20.5287,-51.79069 c 15.62139,-52.46453 16.87126,-58.5 12.11468,-58.5 -3.22182,0 -7.52913,6.66243 -16.80918,26 -8.38998,17.48286 -15.41839,36.40341 -20.76135,55.88974 l -3.96828,14.47275 2.00404,2.13321 c 1.10222,1.17326 2.00404,2.89755 2.00404,3.83175 0,1.01974 1.77865,2.56268 4.45067,3.86085 2.46108,1.19568 4.18624,2.64273 3.85914,3.237 -0.32535,0.59109 0.10775,0.3997 0.96244,-0.4253 0.85469,-0.825 8.1194,-23.55 16.1438,-50.5 z m -278.41605,45.87749 c 0,-0.58713 0.88851,-1.87161 1.97447,-2.85439 3.23719,-2.92961 3.22394,-4.83263 -0.0941,-13.52168 -3.39881,-8.90057 -5.6988,-12.00142 -8.90182,-12.00142 -1.11179,0 -3.84739,-1.20836 -6.07912,-2.68524 -7.03729,-4.65707 -9.72191,-11.93617 -18.37225,-49.81476 l -0.68511,-3 2.05005,2.5 c 1.12752,1.375 4.38506,8.35 7.23898,15.5 6.70231,16.79146 8.58176,20.5 10.38921,20.5 2.38999,0 1.79683,-2.6037 -4.52588,-19.86653 -3.29694,-9.0016 -5.99276,-16.6516 -5.9907,-17 0.008,-1.41656 3.81778,5.90784 7.47204,14.36653 7.34899,17.01106 9.23597,15.67248 3.52422,-2.5 -2.27983,-7.2535 -3.9464,-13.38693 -3.70349,-13.62985 0.4613,-0.46129 1.25708,1.10179 7.06634,13.87985 5.83312,12.83054 7.77981,8.76854 2.75565,-5.75 -1.52263,-4.4 -3.15031,-8.86562 -3.61707,-9.92361 -0.83704,-1.8973 -0.82232,-1.89728 1.07591,9.5e-4 5.11828,5.11828 10.32967,14.85081 14.21591,26.54893 5.59094,16.82946 5.9822,19.77342 3.3094,24.90129 -2.02117,3.8777 -2.05821,4.383 -0.66518,9.07383 2.05185,6.90933 6.56684,14.88543 8.47146,14.96551 0.87509,0.0368 -0.28805,0.65446 -2.58476,1.37259 -5.26819,1.64727 -10.88061,5.08915 -12.82492,7.86504 -0.82459,1.17726 -1.49925,1.6601 -1.49925,1.07296 z m 10.71818,-11.62923 c 0.93179,-0.71926 0.67514,-2.03448 -1.09166,-5.5943 -1.27041,-2.55968 -2.89224,-6.80096 -3.60405,-9.42508 -1.14455,-4.21938 -1.1001,-4.98562 0.3844,-6.62597 2.86909,-3.17031 2.90741,-7.97905 0.13897,-17.43702 -3.20438,-10.94727 -8.56354,-24.98152 -9.26983,-24.27524 -0.28946,0.28947 0.94076,5.91215 2.73384,12.49484 3.35241,12.30724 3.45667,16.5765 0.34169,13.9913 -0.89364,-0.74166 -2.47462,-3.33103 -3.5133,-5.75416 -2.49213,-5.81391 -3.20639,-4.84886 -1.15622,1.56219 1.98608,6.21064 1.29557,8.77735 -2.13005,7.91758 -1.33617,-0.33536 -2.70854,-0.15809 -3.0497,0.39393 -0.34117,0.55202 -1.71117,1.00367 -3.04444,1.00367 -2.70308,0 -4.92654,-3.73746 -9.96848,-16.75623 -1.54562,-3.99093 -2.99559,-7.07086 -3.22216,-6.8443 -0.87105,0.87105 4.81364,21.82652 7.19673,26.52932 2.70389,5.33588 7.99141,10.07121 11.24561,10.07121 2.98559,0 6.70158,3.33812 8.5464,7.67734 0.89386,2.10246 2.5413,5.9933 3.66098,8.6463 2.01633,4.77756 2.49431,4.97733 5.80127,2.42462 z m 10.54557,0.53416 c 1.52006,-0.22986 3.77006,-0.22371 5,0.0136 1.22994,0.23736 -0.0137,0.42542 -2.76375,0.41792 -2.75,-0.008 -3.75631,-0.20172 -2.23625,-0.43157 z m -10.2885,-201.84752 c -1.64953,-4.3386 -1.11853,-14.52247 1.00066,-19.19125 4.74416,-10.45183 13.03346,-17.24365 21.04556,-17.24365 3.54661,0 5.13864,0.54153 6.80422,2.31445 1.19587,1.27295 2.17431,2.84147 2.17431,3.48561 0,0.64413 -2.5875,2.47746 -5.75,4.07405 -7.62577,3.8499 -15.02624,11.87083 -19.72569,21.37953 -2.10565,4.2605 -3.99617,7.74636 -4.20114,7.74636 -0.20497,0 -0.81153,-1.1543 -1.34792,-2.5651 z m 242.39468,-1.1849 c -3.66215,-11.29704 -11.20968,-20.71119 -21.06281,-26.27195 -6.14939,-3.4705 -6.77641,-5.79564 -2.40275,-8.90996 3.91048,-2.7845 6.64494,-2.5946 12.70726,0.8825 9.10641,5.22305 15.36059,15.24781 15.3786,24.65019 0.0157,8.19024 -3.03077,14.5526 -4.6203,9.64922 z"
         id="path3004"
         inkscape:connector-curvature="0" />
      <path
         style="fill:#0857aa"
         d="m 368.85865,590.30244 c -0.70632,-0.44817 -2.57534,-5.73602 -4.15338,-11.75077 -5.11806,-19.50769 -12.08377,-42.25524 -15.20834,-49.66502 -1.67884,-3.9813 -5.21108,-12.43761 -7.8494,-18.7918 -5.66755,-13.64981 -22.24922,-47.15781 -25.45887,-51.44693 -1.23474,-1.65 -12.05002,-18.525 -24.03396,-37.5 -11.98393,-18.975 -24.48183,-38.44631 -27.7731,-43.26958 -13.42633,-19.67595 -21.73937,-49.56282 -21.73856,-78.1541 5.3e-4,-18.60146 8.96236,-44.8464 22.58598,-66.14355 4.31721,-6.74887 17.49596,-20.6873 24.40713,-25.81403 16.10923,-11.94992 23.09404,-15.53206 42.50672,-21.7995 l 13,-4.19708 22.47495,-0.39693 c 24.92553,-0.44021 28.38668,-0.0232 45.52505,5.48556 25.67095,8.2513 46.67016,22.84847 61.88614,43.0189 8.8921,11.78744 17.49675,29.63048 21.6334,44.86011 3.07217,11.31065 3.88636,38.25165 1.53855,50.9102 -3.98972,21.51122 -11.75766,41.23277 -22.33264,56.69902 -1.61742,2.36554 -12.75077,19.82598 -24.74076,38.80098 -11.98999,18.975 -23.32476,36.71811 -25.18838,39.42914 -6.87521,10.00147 -24.97208,48.84632 -33.57607,72.07086 -7.76409,20.95744 -14.60065,43.10354 -16.29242,52.7771 -0.81817,4.67826 -4.06516,6.87416 -7.21204,4.87742 z m 4.12261,-31.09647 c 0.8236,-4.11801 14.94142,-42.3374 20.18114,-54.63385 11.80845,-27.7118 20.06103,-41.97312 63.32035,-109.4242 24.01053,-37.43785 29.58966,-50.57719 32.69258,-76.99387 2.19061,-18.64968 1.99985,-21.36202 -3.10293,-44.12131 -2.42216,-10.80323 -11.92592,-29.72872 -19.88184,-39.59207 -9.48336,-11.75699 -14.43293,-16.41943 -24.77274,-23.33561 -11.90854,-7.9655 -17.92319,-10.90477 -31.27495,-15.28364 -12.48117,-4.09335 -23.23712,-5.67717 -38.47377,-5.6653 -26.69611,0.0208 -44.20539,4.94598 -66.25054,18.63554 -16.34058,10.14714 -25.29167,18.97245 -34.5543,34.06873 -8.30179,13.53029 -9.52094,16.17522 -13.74539,29.82031 -3.44689,11.13352 -3.74021,13.08186 -4.21049,27.96722 -0.52516,16.62242 0.30174,23.54703 4.71689,39.5 3.44534,12.44882 9.78042,26.17377 15.92432,34.5 2.02921,2.75 14.73892,22.55 28.24378,44 24.11077,38.29552 41.85506,70.32747 49.85605,90 7.49332,18.42428 11.21769,28.6675 14.54376,40 1.93709,6.6 3.72754,12.59102 3.97877,13.31338 0.69576,2.00047 2.1418,0.58221 2.80931,-2.75533 z m 1.9641,-116.52685 c -3.49229,-1.51871 -6.3912,-6.39511 -10.83009,-18.21788 -1.40694,-3.74733 -3.8051,-8.38832 -5.32925,-10.31332 -7.65214,-9.66466 -11.25726,-15.13144 -9.28114,-14.07385 1.12879,0.60411 2.50792,1.88036 3.06475,2.83611 0.55683,0.95576 1.02611,1.20353 1.04283,0.55061 0.0204,-0.79586 1.18469,-0.99982 3.53252,-0.61882 7.30943,1.18616 21.29359,-4.42035 28.74789,-11.52556 4.48647,-4.27636 4.81195,-6.0554 1,-5.4658 -1.5125,0.23394 1.09175,-1.33737 5.78721,-3.4918 10.60719,-4.86692 15.47386,-7.95483 19.96279,-12.66644 3.17274,-3.33013 3.3344,-3.76684 1.72897,-4.6705 -1.96862,-1.10809 -1.43068,-2.87395 0.8755,-2.87395 2.24495,0 6.39553,4.61395 6.39553,7.10953 0,2.14093 -0.0544,2.15123 -2.01048,0.38099 -1.95275,-1.76722 -2.08445,-1.75014 -4.58694,0.59501 -5.45889,5.11566 -12.52727,20.58292 -17.3453,37.95554 -1.76438,6.3619 -1.76262,6.6046 0.0643,8.86078 2.78889,3.44413 2.52303,9.62966 -0.49899,11.60976 -1.30756,0.85675 -3.16239,3.61323 -4.12184,6.12551 -1.49091,3.9039 -2.48978,4.91483 -6.87261,6.95556 -5.90316,2.74864 -6.96161,2.83635 -11.32568,0.93852 z m 1.02091,-1.9912 c -1.74713,-0.75995 -3.86661,-2.65484 -4.70996,-4.21086 -0.84335,-1.55603 -1.55138,-2.23202 -1.5734,-1.50222 -0.0593,1.96394 5.52086,7.17919 7.63304,7.13394 1.16189,-0.0249 0.67059,-0.54211 -1.34968,-1.42086 z m 15.08249,-4.15535 c 0.35265,-0.919 0.40559,-1.9065 0.11765,-2.19444 -0.28795,-0.28795 -0.52354,-0.0161 -0.52354,0.60417 0,0.62024 -1.0125,2.10077 -2.25,3.29007 -2.17205,2.08746 -2.17613,2.12441 -0.11765,1.06674 1.17279,-0.6026 2.42089,-1.84754 2.77354,-2.76654 z m 7.59411,-13.45026 c 0,-2.17341 -0.66235,-4.2392 -1.61186,-5.02723 -0.88653,-0.73575 -1.983,-2.25335 -2.43662,-3.37244 -0.59422,-1.466 -0.84246,-1.5889 -0.88813,-0.43971 -0.0349,0.87726 0.83661,2.4095 1.93661,3.40499 2.94599,2.66609 2.68136,8.00745 -0.5,10.09196 -1.375,0.90093 -2.5,2.04978 -2.5,2.55299 0,0.50321 1.35,-0.0832 3,-1.30307 2.39048,-1.76736 3,-2.96761 3,-5.90749 z m -36.92592,-8.68439 c -0.54796,-0.9625 -2.62537,-3.55 -4.61648,-5.75 -3.15971,-3.4912 -3.07094,-3.26861 0.69793,1.75 4.35099,5.79376 5.75662,7.2286 3.91855,4 z m 33.53009,-4.97917 c -0.3323,-0.33229 -0.56864,0.25834 -0.52522,1.3125 0.048,1.16495 0.28494,1.4019 0.60416,0.60417 0.28887,-0.72188 0.25335,-1.58438 -0.0789,-1.91667 z m 1,-4 c -0.3323,-0.33229 -0.56864,0.25834 -0.52522,1.3125 0.048,1.16495 0.28494,1.4019 0.60416,0.60417 0.28887,-0.72188 0.25335,-1.58438 -0.0789,-1.91667 z m -63.10417,-17.42363 c -8.30871,-6.05973 -11.58585,-7.44518 -12.73855,-5.38542 -1.1937,2.13302 -2.76145,0.98575 -2.76145,-2.0208 0,-2.81412 3.20962,-6.44098 5.7,-6.44098 1.32222,0 1.43333,0.26667 0.5,1.2 -2.75152,2.75152 -2.33893,3.04126 14.8,10.39323 3.36936,1.44533 4.65532,2.36849 3.31955,2.38303 -1.44139,0.0157 -2.28876,0.73945 -2.5,2.13531 -0.29608,1.95645 -0.76029,1.79012 -6.31955,-2.26437 z m 22.25,1.41556 c 2.8875,-0.202 7.6125,-0.202 10.5,0 2.8875,0.202 0.525,0.36728 -5.25,0.36728 -5.775,0 -8.1375,-0.16528 -5.25,-0.36728 z m -9.47917,-0.86693 c 0.33229,-0.33229 1.19479,-0.36781 1.91667,-0.0789 0.79773,0.31922 0.56078,0.55618 -0.60417,0.60416 -1.05416,0.0434 -1.64479,-0.19293 -1.3125,-0.52522 z m 27,0 c 0.33229,-0.33229 1.19479,-0.36781 1.91667,-0.0789 0.79773,0.31922 0.56078,0.55618 -0.60417,0.60416 -1.05416,0.0434 -1.64479,-0.19293 -1.3125,-0.52522 z m -9.56331,-24.48571 c -7.32739,-3.86704 -10.0335,-13.5831 -5.74301,-20.61978 2.3761,-3.89697 8.67635,-7.29034 13.53549,-7.29034 4.85914,0 11.15939,3.39337 13.53549,7.29034 1.17728,1.9308 1.95703,5.00264 1.95703,7.70966 0,11.53751 -12.62375,18.53661 -23.285,12.91012 z m -51.95752,-31.63352 c 1.7875,-0.22182 4.7125,-0.22182 6.5,0 1.7875,0.22183 0.325,0.40333 -3.25,0.40333 -3.575,0 -5.0375,-0.1815 -3.25,-0.40333 z m 106.25,-0.86171 c -3.01957,-1.23625 -3.0882,-1.33013 -0.5,-0.68389 1.65,0.41199 6.15,0.74906 10,0.74906 3.85,0 8.35,-0.33707 10,-0.74906 2.5882,-0.64624 2.51957,-0.55236 -0.5,0.68389 -1.925,0.78813 -6.2,1.43295 -9.5,1.43295 -3.3,0 -7.575,-0.64482 -9.5,-1.43295 z m -9.23569,-2.85432 c -3.06712,-1.60001 -7.46267,-4.56736 -6.73682,-4.5479 1.25754,0.0337 12.06944,5.98651 10.86343,5.98117 -0.76501,-0.003 -2.62198,-0.64836 -4.12661,-1.43327 z m 38.62784,-1.92526 c 3.79069,-1.99942 7.16569,-3.62676 7.5,-3.61631 1.4112,0.0441 -9.02233,5.97247 -11.58591,6.58315 -1.54343,0.36766 0.29523,-0.96742 4.08591,-2.96684 z m -129.89215,-3.7837 c -9.24066,-5.02493 -11.87589,-8.94104 -11.74715,-17.45697 0.0783,-5.17674 2.12272,-9.2002 6.73086,-13.2462 3.28408,-2.88345 4.16918,-3.14844 10.51629,-3.14844 6.35031,0 7.23122,0.26411 10.52412,3.15532 6.9267,6.08172 8.94725,13.12689 5.92854,20.67138 -3.18806,7.96775 -15.44367,13.5644 -21.95266,10.02491 z m 100,0 c -9.24066,-5.02493 -11.87589,-8.94104 -11.74715,-17.45697 0.0783,-5.17674 2.12272,-9.2002 6.73086,-13.2462 3.28408,-2.88345 4.16918,-3.14844 10.51629,-3.14844 6.35031,0 7.23122,0.26411 10.52412,3.15532 6.9267,6.08172 8.94725,13.12689 5.92854,20.67138 -3.18806,7.96775 -15.44367,13.5644 -21.95266,10.02491 z m -18.94113,-1.38341 c -1.06762,-0.80751 -1.46022,-1.4682 -0.87244,-1.4682 0.58777,0 1.62888,0.675 2.31357,1.5 1.5572,1.87632 1.06734,1.86551 -1.44113,-0.0318 z m -4.45848,-4.76368 c -1.26492,-2.10631 -1.24361,-2.12762 0.47833,-0.47833 0.99123,0.94941 1.58698,1.94144 1.3239,2.20452 -0.26308,0.26308 -1.07408,-0.5137 -1.80223,-1.72619 z m 68.89961,-2.01526 c 0,-0.41566 1.19822,-3.10329 2.66272,-5.9725 1.46449,-2.86922 3.23439,-7.01676 3.9331,-9.21676 0.69871,-2.2 1.30049,-3.20356 1.33728,-2.23013 0.0816,2.15824 -4.15586,12.78237 -6.3446,15.90724 -0.87367,1.24734 -1.5885,1.92781 -1.5885,1.51215 z m -73.55257,-3.96426 c -2.5205,-4.15908 -5.32683,-10.81179 -5.36782,-12.725 -0.0177,-0.825 1.03443,1.09361 2.33801,4.26357 1.30358,3.16996 3.12885,6.92151 4.05616,8.33676 0.92732,1.41526 1.51391,2.74531 1.30356,2.95567 -0.21036,0.21036 -1.25882,-1.06359 -2.32991,-2.831 z m -31.36848,-12.14167 c -0.0434,-1.05416 0.19292,-1.64479 0.52522,-1.3125 0.33229,0.33229 0.36781,1.19479 0.0789,1.91667 -0.31922,0.79773 -0.55618,0.56078 -0.60416,-0.60417 z m -86.92106,-4.58333 c 0,-1.375 0.22698,-1.9375 0.50439,-1.25 0.27741,0.6875 0.27741,1.8125 0,2.5 -0.27741,0.6875 -0.50439,0.125 -0.50439,-1.25 z m 112.19152,-6 c 0,-4.675 0.17226,-6.5875 0.3828,-4.25 0.21053,2.3375 0.21053,6.1625 0,8.5 -0.21054,2.3375 -0.3828,0.425 -0.3828,-4.25 z m -24.0066,-0.5 c 0.004,-4.4 0.17944,-6.07561 0.39069,-3.72357 0.21124,2.35204 0.20827,5.95204 -0.007,8 -0.21487,2.04796 -0.38771,0.12357 -0.38408,-4.27643 z m 111.85214,5 c -0.0204,-1.65 0.18706,-2.44606 0.46099,-1.76903 0.27392,0.67703 0.29059,2.02703 0.0371,3 -0.25354,0.97297 -0.47766,0.41903 -0.49804,-1.23097 z m -201.03706,-4.5 c 0,-1.375 0.22698,-1.9375 0.50439,-1.25 0.27741,0.6875 0.27741,1.8125 0,2.5 -0.27741,0.6875 -0.50439,0.125 -0.50439,-1.25 z m 201.92106,-0.41667 c -0.0434,-1.05416 0.19293,-1.64479 0.52522,-1.3125 0.33229,0.3323 0.36781,1.1948 0.0789,1.91667 -0.31922,0.79773 -0.55618,0.56078 -0.60416,-0.60417 z m -0.884,-5.08333 c -0.0204,-1.65 0.18706,-2.44606 0.46099,-1.76903 0.27392,0.67703 0.29059,2.02703 0.0371,3 -0.25354,0.97297 -0.47766,0.41903 -0.49804,-1.23097 z m -200.03706,-0.5 c 0,-1.375 0.22698,-1.9375 0.50439,-1.25 0.27741,0.6875 0.27741,1.8125 0,2.5 -0.27741,0.6875 -0.50439,0.125 -0.50439,-1.25 z m 112.86585,-3.72976 c -0.039,-2.01809 3.16069,-9.52065 5.65178,-13.25237 1.27846,-1.91518 2.32448,-3.13685 2.32448,-2.71482 0,0.42202 -0.72275,1.87038 -1.60612,3.21856 -0.88336,1.34819 -2.67268,5.04486 -3.97626,8.21482 -1.30358,3.16996 -2.38083,5.21018 -2.39388,4.53381 z m 86.05521,-0.29845 c -0.0434,-0.84052 -1.65395,-4.81469 -3.57895,-8.83149 -3.80855,-7.9471 -4.38318,-9.84622 -1.9115,-6.31741 2.36753,3.38012 6.57999,14.21061 6.03987,15.52886 -0.26726,0.65228 -0.50458,0.48816 -0.54942,-0.37996 z M 393.74326,259.4434 c 0.72815,-1.21249 1.53915,-1.98927 1.80223,-1.72619 0.26308,0.26308 -0.33267,1.25511 -1.3239,2.20452 -1.72194,1.64929 -1.74325,1.62798 -0.47833,-0.47833 z m 9.30079,-8.29548 c 3.77209,-2.75 7.21315,-5 7.6468,-5 0.43364,0 1.61275,-0.2502 2.62023,-0.556 1.00749,-0.3058 -0.41821,0.65368 -3.16821,2.13216 -2.75,1.47849 -6.63976,3.97869 -8.6439,5.556 -2.00415,1.57731 -4.01952,2.86784 -4.47859,2.86784 -0.45908,0 2.25158,-2.25 6.02367,-5 z m 43.09882,-2.13952 c -3.85,-2.19246 -5.875,-3.68168 -4.5,-3.30937 3.42524,0.92746 14.61409,7.54099 12.47251,7.37228 -0.53488,-0.0421 -4.12251,-1.87045 -7.97251,-4.06291 z m -30.22917,-4.46465 c 0.33229,-0.33229 1.19479,-0.36782 1.91667,-0.0789 0.79773,0.31923 0.56078,0.55619 -0.60417,0.60417 -1.05416,0.0434 -1.64479,-0.19293 -1.3125,-0.52522 z m 20,0 c 0.33229,-0.33229 1.19479,-0.36782 1.91667,-0.0789 0.79773,0.31923 0.56078,0.55619 -0.60417,0.60417 -1.05416,0.0434 -1.64479,-0.19293 -1.3125,-0.52522 z m -124.4944,-1.12933 c 2.35204,-0.21124 5.95204,-0.20827 8,0.007 2.04796,0.21488 0.12357,0.38772 -4.27643,0.38409 -4.4,-0.004 -6.07561,-0.17944 -3.72357,-0.39069 z m 112,0 c 2.35204,-0.21124 5.95204,-0.20827 8,0.007 2.04796,0.21488 0.12357,0.38772 -4.27643,0.38409 -4.4,-0.004 -6.07561,-0.17944 -3.72357,-0.39069 z m 59.89024,280.06683 c -0.36667,-0.36666 -0.66667,-2.54692 -0.66667,-4.84501 0,-4.84261 -1.64137,-6.74486 -7.64862,-8.86435 -4.6533,-1.64178 -5.77976,-1.20135 -6.71646,2.62603 -0.795,3.24841 -2.53221,3.48406 -5.77414,0.78327 l -2.36078,-1.96673 2.28138,-0.0333 c 1.25477,-0.0183 2.5246,-0.66707 2.82186,-1.44171 0.29726,-0.77465 1.78777,-1.92509 3.31224,-2.55655 2.34444,-0.9711 3.62409,-0.77117 8.30013,1.2968 6.42292,2.84052 7.05209,3.62456 7.75845,9.66819 0.52315,4.47615 0.54979,4.50318 5.02594,5.09981 l 4.5,0.5998 -5.08333,0.1502 c -2.79584,0.0826 -5.38334,-0.14981 -5.75,-0.51648 z m 11.33333,-0.55489 c 0.275,-0.25851 3.52927,-2.05813 7.23171,-3.99914 7.25915,-3.80564 8.36271,-3.3504 1.46661,0.60499 -3.76869,2.16161 -9.95514,4.5756 -8.69832,3.39415 z m 18.17672,-14.50999 c 1.82781,-3.35393 3.48181,-5.94036 3.67558,-5.74762 0.56146,0.55849 -4.10809,9.44656 -5.62387,10.70455 -0.75624,0.62763 0.12049,-1.60299 1.94829,-4.95693 z m -262.17672,0.14644 c -3.12611,-1.27987 -3.17952,-1.35917 -0.5,-0.74231 1.65,0.37986 4.53164,0.72142 6.40364,0.75903 3.18165,0.0639 3.50777,-0.23833 5,-4.63424 1.69441,-4.99148 6.79937,-11.02677 11.33773,-13.40391 2.99794,-1.57029 6.98836,-1.0265 8.84006,1.20465 1.79119,2.15826 3.70633,1.67537 5.3466,-1.34811 0.82054,-1.5125 1.50991,-2.15288 1.53193,-1.42308 0.0489,1.61987 -5.35227,7.17308 -6.97666,7.17308 -0.6438,0 -1.39502,-0.8584 -1.66937,-1.90755 -1.19681,-4.5766 -8.17901,-2.75804 -12.83185,3.34216 -2.12546,2.78662 -2.41898,3.81477 -1.5517,5.43531 1.77196,3.31094 1.23175,4.87791 -2.0796,6.03225 -4.14162,1.44378 -8.54167,1.27694 -12.85078,-0.48728 z m 206.92196,-0.5607 c -0.68116,-1.27277 -0.90449,-4.01907 -0.5489,-6.75 1.28806,-9.89233 1.43625,-9.2976 -2.61539,-10.49667 -5.64241,-1.66984 -7.75767,-3.96204 -7.75767,-8.4066 0,-2.10026 0.69982,-4.69217 1.55517,-5.75979 1.50228,-1.87512 1.51928,-1.86685 0.5,0.24313 -0.58035,1.20134 -1.05517,3.79546 -1.05517,5.7647 0,2.96633 0.55743,3.92031 3.25,5.562 1.7875,1.08986 4.32001,1.98325 5.62781,1.9853 2.20328,0.003 2.33215,-0.28181 1.7557,-3.8867 -0.72914,-4.55981 1.24343,-10.9865 4.31488,-14.05795 1.94362,-1.94362 1.98229,-2.28499 0.56854,-5.01888 -0.83431,-1.61337 -1.51693,-4.72587 -1.51693,-6.91665 0,-3.57769 -0.27999,-4.02565 -2.75,-4.39983 -2.33314,-0.35344 -2.20992,-0.4393 0.81291,-0.56642 2.56131,-0.10771 4.38857,-1.01828 6.5,-3.23911 2.82818,-2.97472 7.4754,-5.95838 9.13743,-5.86652 0.43981,0.0243 -0.90696,0.94486 -2.99282,2.04568 -5.2086,2.74885 -7.69916,7.16503 -7.70378,13.66012 -0.004,6.0173 1.31852,6.67908 6.49626,3.25 4.5234,-2.99573 12.94425,-2.74168 17.76787,0.53605 4.93899,3.35613 4.7843,5.04137 -0.22803,2.48427 -6.24868,-3.18783 -13.42497,-2.74686 -20.01121,1.22968 -5.77192,3.48487 -7.82064,7.03396 -7.93724,13.75 -0.0959,5.52203 1.0112,6.51543 4.97605,4.46513 6.16081,-3.18588 20.6115,-1.04269 27.35956,4.05771 3.21208,2.4278 1.17204,2.62968 -3.90025,0.38597 -2.86483,-1.26725 -7.85379,-2.32597 -12.44273,-2.64051 -6.51295,-0.4464 -8.28823,-0.20477 -11.85161,1.61314 -2.30516,1.176 -4.87547,3.46142 -5.7118,5.07871 -1.7533,3.3905 -1.99003,9.29421 -0.48543,12.10559 0.56935,1.06384 0.81019,1.93426 0.53519,1.93426 -0.275,0 -1.01678,-0.96561 -1.64841,-2.14581 z M 241.375,504.61187 c -2.05267,-1.39483 -3.73213,-2.77547 -3.73213,-3.0681 0,-0.29262 1.2375,0.32998 2.75,1.38356 1.5125,1.05358 3.65,2.42053 4.75,3.03768 1.1,0.61715 1.54196,1.13578 0.98213,1.1525 -0.55982,0.0167 -2.69732,-1.11081 -4.75,-2.50564 z m 275.46282,-5.96395 c -0.0204,-1.65 0.18706,-2.44606 0.46099,-1.76903 0.27392,0.67703 0.29059,2.02703 0.0371,3 -0.25354,0.97297 -0.47766,0.41903 -0.49804,-1.23097 z m -282.91552,-0.75 c -0.531,-0.6875 -2.1611,-4.29223 -3.62244,-8.01052 -2.23428,-5.68496 -2.63031,-8.15093 -2.48928,-15.5 l 0.16772,-8.73948 0.63146,10 c 0.52341,8.28896 1.1684,11.15496 3.76957,16.75 3.08179,6.62886 3.46221,7.98488 1.54297,5.5 z m 284.07553,-11.25 c -0.003,-4.95 0.16605,-7.10108 0.37577,-4.78017 0.20972,2.3209 0.21222,6.3709 0.006,9 -0.20667,2.62909 -0.37827,0.73017 -0.38131,-4.21983 z m -229.27601,-0.91667 c -0.0434,-1.05416 0.19292,-1.64479 0.52522,-1.3125 0.33229,0.33229 0.36781,1.19479 0.0789,1.91667 -0.31922,0.79773 -0.55618,0.56078 -0.60416,-0.60417 z m -1.89515,-5.9516 c -0.6818,-1.88548 -2.33069,-3.83326 -3.81915,-4.51145 -7.57263,-3.45032 -19.15852,-1.99619 -25.00666,3.13855 -1.88384,1.65403 -3.74755,2.67758 -4.14158,2.27455 -0.39402,-0.40303 1.20609,-2.44543 3.55581,-4.53867 5.0041,-4.45788 11.22508,-6.27997 19.84717,-5.81312 5.74385,0.31101 5.88789,0.2553 6.19352,-2.39516 0.1721,-1.49247 -0.57999,-4.7321 -1.67129,-7.19919 -1.82827,-4.1331 -2.43637,-4.61706 -7.73793,-6.15826 -7.0515,-2.04993 -15.03169,-1.43603 -20.08421,1.54503 -4.54074,2.6791 -5.7701,1.61436 -1.81948,-1.57584 4.31038,-3.48072 9.87884,-4.7178 17.7465,-3.94254 l 6.7535,0.66547 0,-4.5135 c 0,-5.44529 -1.62271,-9.35308 -4.22712,-10.17968 -1.05798,-0.33579 -1.65915,-0.87498 -1.33594,-1.19819 0.32321,-0.32321 1.81962,0.32228 3.32536,1.43443 1.50573,1.11216 4.32821,2.31989 6.27216,2.68385 3.98479,0.74606 7.96554,3.19473 7.96554,4.89982 0,0.62394 -0.5625,0.39368 -1.25,-0.51167 -1.13227,-1.49106 -6.69955,-4.18641 -7.2585,-3.51414 -0.12712,0.15289 -0.53639,3.48401 -0.9095,7.4025 -0.55037,5.78022 -0.40187,7.23063 0.78705,7.68686 0.80599,0.30928 1.71355,-0.0842 2.01681,-0.87452 0.31331,-0.81649 1.8741,-1.43686 3.61498,-1.43686 2.2222,0 3.33076,-0.61795 4.03631,-2.25 0.80805,-1.86912 0.87345,-1.69834 0.38637,1.0089 -0.46322,2.57461 -0.0443,3.90305 1.99507,6.32672 3.44007,4.08829 3.37703,8.27261 -0.17821,11.82784 -1.51778,1.51779 -3.41319,2.97748 -4.21201,3.24375 -1.23754,0.41251 -1.26285,1.11681 -0.17108,4.76082 1.53488,5.12296 1.0268,6.41578 -0.67349,1.7137 z m 2.85137,-9.14992 c 7.53681,-3.89743 3.5276,-14.48181 -5.48551,-14.48181 -1.40231,0 -2.54778,0.1125 -2.54547,0.25 0.002,0.1375 1.1083,2.42624 2.45778,5.08609 1.69269,3.33634 2.27286,5.73974 1.87081,7.75 -0.66902,3.3451 -0.32099,3.4763 3.70239,1.39572 z m 226.96483,5.40664 c 0,-0.79468 -1.58967,-4.76195 -3.53259,-8.81616 -1.94293,-4.0542 -2.86984,-6.82124 -2.0598,-6.14897 1.85424,1.53888 7.14278,14.85963 6.25282,15.74958 -0.36324,0.36324 -0.66043,0.0102 -0.66043,-0.78445 z m -66.38995,-5.83438 c -0.32342,-1.95474 -0.59299,-4.6096 -0.59904,-5.8997 -0.0115,-2.45795 3.48785,-8.15437 5.00934,-8.15437 0.48628,0 -0.24089,1.21394 -1.61594,2.69764 -1.96891,2.12449 -2.43681,3.55863 -2.20225,6.75 0.2877,3.91444 0.43398,4.06938 4.29784,4.55236 5.21089,0.65136 5.12695,2.34957 -0.15095,3.05407 -4.11431,0.54917 -4.15615,0.52269 -4.739,-3 z M 228.6974,464.41816 c -0.0726,-1.63832 3.08315,-9.46589 3.60566,-8.94338 0.22541,0.2254 -0.48139,2.60657 -1.57065,5.29148 -1.08926,2.68491 -2.00502,4.32827 -2.03501,3.6519 z m 3.94921,-10.85357 c 0.005,-1.12248 3.77925,-7.41667 4.44784,-7.41667 0.26453,0 -0.48516,1.6875 -1.66598,3.75 -2.64475,4.6195 -2.78651,4.80636 -2.78186,3.66667 z m 263.96799,-3.08303 c -4.59723,-2.43371 -8.59048,-3.69481 -13.5,-4.26339 l -6.97173,-0.8074 7,-0.13064 c 5.7864,-0.10798 8.04023,0.36189 13,2.71021 3.3,1.56247 6.6176,3.58712 7.37244,4.49922 1.9386,2.34246 0.55874,1.94094 -6.90071,-2.008 z m -257.93109,-5.86113 c 0.16791,-4.01796 11.98201,-11.80236 16.22719,-10.69222 1.67092,0.43695 1.27374,0.78195 -2.01978,1.75441 -5.12096,1.51204 -10.78244,4.96246 -12.7488,7.76983 -0.82459,1.17726 -1.48096,1.70285 -1.45861,1.16798 z m 21.22311,-11.19009 c 1.52006,-0.22986 3.77006,-0.22371 5,0.0136 1.22994,0.23736 -0.0137,0.42542 -2.76375,0.41792 -2.75,-0.008 -3.75631,-0.20172 -2.23625,-0.43157 z M 250.2751,230.63191 c -0.34773,-0.90616 -0.62235,-4.42326 -0.61027,-7.81578 0.0485,-13.6087 10.73177,-26.66821 21.8159,-26.66821 3.92546,0 8.16214,2.50659 8.16214,4.82906 0,0.45599 -2.20845,1.86345 -4.90766,3.12769 -6.64437,3.11206 -15.11126,11.99272 -19.88717,20.85903 -2.8343,5.26178 -4.11821,6.85321 -4.57294,5.66821 z m 239.51463,-7.65907 c -3.76608,-8.01422 -10.65194,-15.34219 -18.35734,-19.53599 -5.58549,-3.04001 -6.17347,-5.5219 -1.83918,-7.76325 4.13104,-2.13624 5.82089,-1.92488 11.73683,1.46805 8.4813,4.86422 14.26205,14.38176 14.27721,23.50627 0.009,5.3428 -0.79647,9.51254 -1.83101,9.4802 -0.34835,-0.0109 -2.14228,-3.23077 -3.98651,-7.15528 z"
         id="path3002"
         inkscape:connector-curvature="0" />
      <path
         style="fill:#a1050c"
         d="m 368.85865,590.30244 c -0.70632,-0.44817 -2.57534,-5.73602 -4.15338,-11.75077 -5.11806,-19.50769 -12.08377,-42.25524 -15.20834,-49.66502 -1.67884,-3.9813 -5.21108,-12.43761 -7.8494,-18.7918 -5.66755,-13.64981 -22.24922,-47.15781 -25.45887,-51.44693 -1.23474,-1.65 -12.05002,-18.525 -24.03396,-37.5 -11.98393,-18.975 -24.48183,-38.44631 -27.7731,-43.26958 -13.42633,-19.67595 -21.73937,-49.56282 -21.73856,-78.1541 5.3e-4,-18.60146 8.96236,-44.8464 22.58598,-66.14355 4.31721,-6.74887 17.49596,-20.6873 24.40713,-25.81403 16.10923,-11.94992 23.09404,-15.53206 42.50672,-21.7995 l 13,-4.19708 22.47495,-0.39693 c 24.92553,-0.44021 28.38668,-0.0232 45.52505,5.48556 25.67095,8.2513 46.67016,22.84847 61.88614,43.0189 8.8921,11.78744 17.49675,29.63048 21.6334,44.86011 3.07217,11.31065 3.88636,38.25165 1.53855,50.9102 -3.98972,21.51122 -11.75766,41.23277 -22.33264,56.69902 -1.61742,2.36554 -12.75077,19.82598 -24.74076,38.80098 -11.98999,18.975 -23.32476,36.71811 -25.18838,39.42914 -6.87521,10.00147 -24.97208,48.84632 -33.57607,72.07086 -7.76409,20.95744 -14.60065,43.10354 -16.29242,52.7771 -0.81817,4.67826 -4.06516,6.87416 -7.21204,4.87742 z m 5.86253,-31.44478 c 2.84224,-9.57997 15.07895,-42.66404 20.4483,-55.28554 5.4993,-12.92694 19.02933,-39.95725 21.97036,-43.89241 1.24623,-1.66748 12.04922,-18.55679 24.00664,-37.53179 11.95742,-18.975 23.4664,-37.05402 25.57551,-40.17559 7.79802,-11.54144 15.95108,-28.46268 19.50842,-40.48875 4.84161,-16.36767 7.25713,-37.59165 5.49024,-48.24006 -3.01249,-18.15512 -5.27555,-25.55036 -12.11692,-39.5956 -5.69224,-11.68608 -8.27723,-15.69935 -15.6401,-24.28161 -14.26487,-16.62735 -31.18283,-27.7436 -53.32076,-35.03536 -29.42157,-9.69085 -62.22406,-8.13461 -90.51162,4.29411 -7.25492,3.1876 -26.24001,15.20804 -31.48838,19.93691 -14.64932,13.19931 -26.67812,32.98679 -33.52583,55.15029 -3.36003,10.87514 -3.73344,13.26846 -4.20257,26.93566 -0.53421,15.56283 0.33995,22.70711 4.7108,38.5 3.29707,11.9131 11.68192,30.16994 16.99305,37 1.4969,1.925 14.19757,21.725 28.22372,44 24.80763,39.39714 41.07398,68.57377 48.83581,87.59583 7.62358,18.68327 11.25139,28.74551 15.10801,41.90417 6.04114,20.61218 6.44211,20.98387 9.93532,9.20974 z m 1.13055,-118.21791 c -3.41004,-1.48153 -4.10664,-2.70656 -10.71265,-18.83897 -1.5421,-3.76593 -4.75961,-9.24808 -7.15001,-12.18256 -2.39041,-2.93447 -4.3462,-5.78747 -4.3462,-6.33998 0,-0.58972 1.44625,-0.76988 3.50211,-0.43627 4.30517,0.69864 14.3778,-1.96137 20.49789,-5.41315 4.95172,-2.7928 11.99438,-9.08723 12.00981,-10.73385 0.005,-0.57588 3.8304,-2.85556 8.5,-5.06595 4.6696,-2.2104 8.49019,-3.66006 8.49019,-3.22148 0,0.43858 -1.29604,3.37208 -2.88009,6.5189 -2.73712,5.43746 -8.15666,21.20689 -9.54802,27.78221 -0.49781,2.35256 -0.17615,3.48743 1.39023,4.90499 2.77001,2.50682 2.75533,8.0798 -0.0257,9.77581 -1.13499,0.69216 -2.97773,3.3665 -4.09497,5.94299 -1.61974,3.73531 -2.92171,5.10303 -6.42548,6.75 -5.13861,2.41543 -4.95574,2.40436 -9.20706,0.55731 z m -14.20598,-80.10819 c -3.78976,-3.42383 -4.00288,-3.92342 -4.00288,-9.38364 0,-5.46022 0.21312,-5.95981 4.00288,-9.38364 3.57593,-3.23063 4.5889,-3.61636 9.49712,-3.61636 4.90822,0 5.92119,0.38573 9.49712,3.61636 3.78976,3.42383 4.00288,3.92342 4.00288,9.38364 0,5.46022 -0.21312,5.95981 -4.00288,9.38364 -3.57593,3.23063 -4.5889,3.61636 -9.49712,3.61636 -4.90822,0 -5.92119,-0.38573 -9.49712,-3.61636 z m -44.50288,-37.53203 c -9.24066,-5.02493 -11.87589,-8.94104 -11.74715,-17.45697 0.0783,-5.17674 2.12272,-9.2002 6.73086,-13.2462 3.28408,-2.88345 4.16918,-3.14844 10.51629,-3.14844 6.35031,0 7.23122,0.26411 10.52412,3.15532 6.9267,6.08172 8.94725,13.12689 5.92854,20.67138 -3.18806,7.96775 -15.44367,13.5644 -21.95266,10.02491 z m 100,0 c -9.24066,-5.02493 -11.87589,-8.94104 -11.74715,-17.45697 0.0783,-5.17674 2.12272,-9.2002 6.73086,-13.2462 3.28408,-2.88345 4.16918,-3.14844 10.51629,-3.14844 6.35031,0 7.23122,0.26411 10.52412,3.15532 6.9267,6.08172 8.94725,13.12689 5.92854,20.67138 -3.18806,7.96775 -15.44367,13.5644 -21.95266,10.02491 z M 250.2751,230.63191 c -0.34773,-0.90616 -0.62235,-4.42326 -0.61027,-7.81578 0.0485,-13.6087 10.73177,-26.66821 21.8159,-26.66821 3.92546,0 8.16214,2.50659 8.16214,4.82906 0,0.45599 -2.20845,1.86345 -4.90766,3.12769 -6.64437,3.11206 -15.11126,11.99272 -19.88717,20.85903 -2.8343,5.26178 -4.11821,6.85321 -4.57294,5.66821 z m 239.51463,-7.65907 c -3.76608,-8.01422 -10.65194,-15.34219 -18.35734,-19.53599 -5.58549,-3.04001 -6.17347,-5.5219 -1.83918,-7.76325 4.13104,-2.13624 5.82089,-1.92488 11.73683,1.46805 8.4813,4.86422 14.26205,14.38176 14.27721,23.50627 0.009,5.3428 -0.79647,9.51254 -1.83101,9.4802 -0.34835,-0.0109 -2.14228,-3.23077 -3.98651,-7.15528 z"
         id="path3000"
         inkscape:connector-curvature="0" />
      <path
         style="fill:#040709"
         d="m 368.85865,590.30244 c -0.70632,-0.44817 -2.57534,-5.73602 -4.15338,-11.75077 -5.11806,-19.50769 -12.08377,-42.25524 -15.20834,-49.66502 -1.67884,-3.9813 -5.21108,-12.43761 -7.8494,-18.7918 -5.66755,-13.64981 -22.24922,-47.15781 -25.45887,-51.44693 -1.23474,-1.65 -12.05002,-18.525 -24.03396,-37.5 -11.98393,-18.975 -24.48183,-38.44631 -27.7731,-43.26958 -13.42633,-19.67595 -21.73937,-49.56282 -21.73856,-78.1541 5.3e-4,-18.60146 8.96236,-44.8464 22.58598,-66.14355 4.31721,-6.74887 17.49596,-20.6873 24.40713,-25.81403 16.10923,-11.94992 23.09404,-15.53206 42.50672,-21.7995 l 13,-4.19708 22.47495,-0.39693 c 24.92553,-0.44021 28.38668,-0.0232 45.52505,5.48556 25.67095,8.2513 46.67016,22.84847 61.88614,43.0189 8.8921,11.78744 17.49675,29.63048 21.6334,44.86011 3.07217,11.31065 3.88636,38.25165 1.53855,50.9102 -3.98972,21.51122 -11.75766,41.23277 -22.33264,56.69902 -1.61742,2.36554 -12.75077,19.82598 -24.74076,38.80098 -11.98999,18.975 -23.32476,36.71811 -25.18838,39.42914 -6.87521,10.00147 -24.97208,48.84632 -33.57607,72.07086 -7.76409,20.95744 -14.60065,43.10354 -16.29242,52.7771 -0.81817,4.67826 -4.06516,6.87416 -7.21204,4.87742 z m 5.86253,-31.44478 c 2.84224,-9.57997 15.07895,-42.66404 20.4483,-55.28554 5.4993,-12.92694 19.02933,-39.95725 21.97036,-43.89241 1.24623,-1.66748 12.04922,-18.55679 24.00664,-37.53179 11.95742,-18.975 23.4664,-37.05402 25.57551,-40.17559 7.79802,-11.54144 15.95108,-28.46268 19.50842,-40.48875 4.84161,-16.36767 7.25713,-37.59165 5.49024,-48.24006 -3.01249,-18.15512 -5.27555,-25.55036 -12.11692,-39.5956 -5.69224,-11.68608 -8.27723,-15.69935 -15.6401,-24.28161 -14.26487,-16.62735 -31.18283,-27.7436 -53.32076,-35.03536 -29.42157,-9.69085 -62.22406,-8.13461 -90.51162,4.29411 -7.25492,3.1876 -26.24001,15.20804 -31.48838,19.93691 -14.64932,13.19931 -26.67812,32.98679 -33.52583,55.15029 -3.36003,10.87514 -3.73344,13.26846 -4.20257,26.93566 -0.53421,15.56283 0.33995,22.70711 4.7108,38.5 3.29707,11.9131 11.68192,30.16994 16.99305,37 1.4969,1.925 14.19757,21.725 28.22372,44 24.80763,39.39714 41.07398,68.57377 48.83581,87.59583 7.62358,18.68327 11.25139,28.74551 15.10801,41.90417 6.04114,20.61218 6.44211,20.98387 9.93532,9.20974 z m 16.92169,-174.20974 c 1.375,-0.78602 2.95,-1.42913 3.5,-1.42913 0.55,0 -0.125,0.64311 -1.5,1.42913 -1.375,0.78602 -2.95,1.42913 -3.5,1.42913 -0.55,0 0.125,-0.64311 1.5,-1.42913 z m 5,-1.67167 c 1.86154,-1.82551 10,-5.48996 10,-4.50262 0,0.6517 -1.4625,1.67851 -3.25,2.28181 -1.7875,0.60329 -4.15,1.4601 -5.25,1.90402 -1.1,0.44391 -1.775,0.58647 -1.5,0.31679 z m -34.99712,-22.44469 c -3.78976,-3.42383 -4.00288,-3.92342 -4.00288,-9.38364 0,-5.46022 0.21312,-5.95981 4.00288,-9.38364 3.57593,-3.23063 4.5889,-3.61636 9.49712,-3.61636 4.90822,0 5.92119,0.38573 9.49712,3.61636 3.78976,3.42383 4.00288,3.92342 4.00288,9.38364 0,5.46022 -0.21312,5.95981 -4.00288,9.38364 -3.57593,3.23063 -4.5889,3.61636 -9.49712,3.61636 -4.90822,0 -5.92119,-0.38573 -9.49712,-3.61636 z m -44.50288,-37.53203 c -9.24066,-5.02493 -11.87589,-8.94104 -11.74715,-17.45697 0.0783,-5.17674 2.12272,-9.2002 6.73086,-13.2462 3.28408,-2.88345 4.16918,-3.14844 10.51629,-3.14844 6.35031,0 7.23122,0.26411 10.52412,3.15532 6.9267,6.08172 8.94725,13.12689 5.92854,20.67138 -3.18806,7.96775 -15.44367,13.5644 -21.95266,10.02491 z m 100,0 c -9.24066,-5.02493 -11.87589,-8.94104 -11.74715,-17.45697 0.0783,-5.17674 2.12272,-9.2002 6.73086,-13.2462 3.28408,-2.88345 4.16918,-3.14844 10.51629,-3.14844 6.35031,0 7.23122,0.26411 10.52412,3.15532 6.9267,6.08172 8.94725,13.12689 5.92854,20.67138 -3.18806,7.96775 -15.44367,13.5644 -21.95266,10.02491 z M 250.2751,230.63191 c -0.34773,-0.90616 -0.62235,-4.42326 -0.61027,-7.81578 0.0485,-13.6087 10.73177,-26.66821 21.8159,-26.66821 3.92546,0 8.16214,2.50659 8.16214,4.82906 0,0.45599 -2.20845,1.86345 -4.90766,3.12769 -6.64437,3.11206 -15.11126,11.99272 -19.88717,20.85903 -2.8343,5.26178 -4.11821,6.85321 -4.57294,5.66821 z m 239.51463,-7.65907 c -3.76608,-8.01422 -10.65194,-15.34219 -18.35734,-19.53599 -5.58549,-3.04001 -6.17347,-5.5219 -1.83918,-7.76325 4.13104,-2.13624 5.82089,-1.92488 11.73683,1.46805 8.4813,4.86422 14.26205,14.38176 14.27721,23.50627 0.009,5.3428 -0.79647,9.51254 -1.83101,9.4802 -0.34835,-0.0109 -2.14228,-3.23077 -3.98651,-7.15528 z"
         id="path2998"
         inkscape:connector-curvature="0" />
    </g>
  </g>
</svg>
